<svg xmlns="http://www.w3.org/2000/svg" viewBox="0 0 67.35 56.93458"><defs><style>.a{fill:#fff;}</style></defs><title>icon-care</title><path class="a" d="M27.06,31.04L15.43,19.45l-0.51.33a6.15,6.15,0,0,0-2.09,2.3V16.76a4.86,4.86,0,0,0-5.32-5.31A5.57,5.57,0,0,0,1.47644,6.38582Q1.23192,6.40718.99,6.45l-1,.18V24.27L11.47,42.94H8.16v14H9.67V44.45H30.03V56.9h1.5v-14H27.06V31.04ZM10.24,13.82a3.38,3.38,0,0,1,1.1,2.88v8.18L7.53,20.95V13A3.32,3.32,0,0,1,10.24,13.82ZM25.56,42.94H13.23L1.5,23.85V7.95a4,4,0,0,1,3.2,1,4.09,4.09,0,0,1,1.33,3.39v9.21L18.12,34.04l1.08-1-3.75-3.88-1-1.48a4.69,4.69,0,0,1,.83-6.2L25.56,31.66V42.94Z" transform="translate(0.01 -0.00541)"/><path class="a" d="M67.34,6.68l-1-.18a5.57,5.57,0,0,0-6.46391,4.502q-0.04425.2474-.06609,0.498a4.86,4.86,0,0,0-5.32,5.21v5.43a6.15,6.15,0,0,0-2.09-2.3l-0.49-.39L40.28,31.04v11.9H35.81v14h1.5V44.45H57.67V56.9h1.5v-14h-3.3L67.34,24.27V6.68ZM57.1,13.82A3.32,3.32,0,0,1,59.81,13v7.94L56,24.87V16.63A3.33,3.33,0,0,1,57.1,13.82Zm8.74,10L54.11,42.94H41.78V31.66l10.3-10.21a4.7,4.7,0,0,1,.83,6.2l-1,1.48-3.75,3.88,1.08,1L61.31,21.55V12.31a4.08,4.08,0,0,1,4.53-4.36V23.82Z" transform="translate(0.01 -0.00541)"/><path class="a" d="M46.1,2.91A9.17,9.17,0,0,0,33.67,2.8,9.2,9.2,0,1,0,20.46234,15.61084Q20.50586,15.65572,20.55,15.7L33.67,28.79,46.8,15.66A9.17,9.17,0,0,0,46.1,2.91ZM33.67,26.67l-12-12A7.7,7.7,0,0,1,32.44445,3.66677Q32.6717,3.88929,32.88,4.13a1,1,0,0,0,1.55,0A7.7,7.7,0,0,1,45.67,14.64Z" transform="translate(0.01 -0.00541)"/></svg>