<svg xmlns="http://www.w3.org/2000/svg" viewBox="0 0 65.72 77.93"><defs><style>.cls-1{fill:#fff;}</style></defs><title>Asset 1</title><g id="Layer_2" data-name="Layer 2"><g id="Layer_1-2" data-name="Layer 1"><path class="cls-1" d="M26,10.48A15.65,15.65,0,1,0,45.64,20.6,15.67,15.67,0,0,0,26,10.48Zm9,28.09a13.85,13.85,0,1,1,9-17.42A13.86,13.86,0,0,1,35,38.57Z"/><path class="cls-1" d="M41.78,21.39,36,27.17,27.87,19l-8.64,8.64a11.83,11.83,0,0,0,1.41,3.68l7.23-7.23L36,32.26l6.47-6.47a11.74,11.74,0,0,0-.55-4C41.88,21.66,41.83,21.53,41.78,21.39Z"/><path class="cls-1" d="M65.72,9.28V0H56.44L59.8,3.37,47.86,15.31A19.88,19.88,0,0,0,11.81,31.45,20.11,20.11,0,0,0,12.86,34L0,46.91l2.55,2.55L14.78,37.22a19.71,19.71,0,0,0,18.81,7.84L35.16,50l-2.9.93,8.67,27L53,74.06,44.35,47l-2.9.93L39.87,43a19.85,19.85,0,0,0,9.81-23.72c-.06-.18-.14-.35-.2-.52L62.35,5.91Zm-15,63.62L42.1,75.67,34.53,52.08l8.65-2.78Zm-11-24.38L38.31,49l-1.43.46-1.51-4.71c.48-.12,1-.25,1.45-.4s.94-.34,1.41-.53ZM36.26,42.6A18.08,18.08,0,1,1,48,19.86,18,18,0,0,1,36.26,42.6Z"/></g></g></svg>