<svg xmlns="http://www.w3.org/2000/svg" viewBox="0 0 80.63 41.57162"><defs><style>.a{fill:#fff;}</style></defs><title>icon-present</title><path class="a" d="M72.93,1.3l-14,4.6,0.48,1.46L52.87,9.67l-0.29-.06L43.7,7.88a4.75,4.75,0,0,0,0-2.47L43.57,4.9l-10.6-.93L22.87,7.48l0.81-2.47L8.4,0.01,0,25.61l15.31,5.02,1.12-3.41,1.68,0.87a3.21,3.21,0,0,0,4.9,2.64l0.64,0.31a3.21,3.21,0,0,0,4.92,2.54l1.13,0.58a3.24,3.24,0,0,0,1.71,2.48,3.18,3.18,0,0,0,3,0l0.75,0.39a3.22,3.22,0,0,0,4.87,2.53l1.85,1,1.26,0.65a3.22,3.22,0,0,0,4.48-4.07l1.29,0.59a3.23,3.23,0,0,0,4.4-4.33l1.44,0.75a3.23,3.23,0,0,0,4.38-4.3l0.58,0.3a3.22,3.22,0,0,0,4.21-4.57l1.35-.39,1.36,4.15,14-4.6ZM14.31,28.73L1.89,24.65,9.36,1.88,21.79,5.96Zm9.28-1.44-0.75,1.44a1.73311,1.73311,0,0,1-3.08-1.59l0.77-1.41a1.72,1.72,0,0,1,2-.88,1.78,1.78,0,0,1,.38.14,1.7,1.7,0,0,1,.33.23h0a1.72,1.72,0,0,1,.36,2.07H23.59ZM28.4,31.6a1.71,1.71,0,0,1-.4.5h0A1.73,1.73,0,0,1,25.31,30l2.18-4.21a1.7354,1.7354,0,0,1,3.08,1.6h0Zm6,2.94a1.7331,1.7331,0,1,1-3.08-1.59l1.8-3.46,0.86-1.65a1.73539,1.73539,0,0,1,3.08,1.6h0Zm5.5,3a1.73,1.73,0,0,1-3.26-.94,1.71,1.71,0,0,1,.19-0.65l1.16-2.24a1.7331,1.7331,0,1,1,3.08,1.59Zm22.76-9.45a1.73,1.73,0,0,1-2.33.74l-9.2-4.77-0.73,2.3,6.59,3.37a1.7354,1.7354,0,0,1-1.6,3.08l-6.31-3.27-0.34.67c-0.14.27-.28,0.55-0.43,0.81l-0.37.71,3.26,1.65a1.733,1.733,0,0,1-1.57,3.09l-3.5-2-1.45,1.85,0.78,0.41a1.72889,1.72889,0,0,1-1.61,3.06l-1.26-.65-1.43-.74,1.28-2.42a3.23,3.23,0,0,0-4.27-4.39h0a3.28008,3.28008,0,0,0-.76.52l1-2a3.23835,3.23835,0,0,0-5.74-3l-2.65,5.11a3.06933,3.06933,0,0,0-.11.3l-0.25-.13,0.08-.12,2.18-4.21a3.23835,3.23835,0,0,0-5.74-3h0l-0.87,1.82A3.23,3.23,0,0,0,19.23,25l-0.76,1.47v0.09l-1.6-.83L22.31,9.28,33.2,5.49l9.11,0.8a3.18,3.18,0,0,1-.15,1.3l-0.42-.08L29.84,9.27,27.96,19.64l1,0.32a5.81,5.81,0,0,0,7.48-4.6l4.61-.23a8.17,8.17,0,0,0,7,3.94,10.33025,10.33025,0,0,0,1.32-.1l3,1.6,9.75,5.26a1.72,1.72,0,0,1,.58,2.24ZM62.57,24.4l-13-7A6.8,6.8,0,0,1,42.08,14l-0.22-.42-6.87.35v0.68a4.31,4.31,0,0,1-5.34,4l1.45-8L41.75,9.03l0.78,0.15,9.78,1.9L53,11.21l6.86-2.48,4.91,15ZM60.81,6.86L71.98,3.19l6.75,20.54-11.17,3.7Z" transform="translate(0 -0.01)"/><path class="a" d="M71.05,20.91a1.05,1.05,0,1,0-2,.64l0.48,1.46a1.05,1.05,0,1,0,2-.64Z" transform="translate(0 -0.01)"/><path class="a" d="M12.39,21.73a1,1,0,0,0-1.2805.60027q-0.01069.02955-.0195,0.05973l-0.48,1.45a1.05,1.05,0,1,0,2,.64l0.48-1.46a1,1,0,0,0-.62607-1.26808Q12.4274,21.73954,12.39,21.73Z" transform="translate(0 -0.01)"/></svg>