<svg xmlns="http://www.w3.org/2000/svg" viewBox="0 0 60.32 71.56"><defs><style>.a{fill:#fff;}</style></defs><title>icon-future</title><path class="a" d="M23.79,9.71a14.31,14.31,0,1,0,18,9.26A14.31,14.31,0,0,0,23.79,9.71Zm8.28,25.83a12.81,12.81,0,1,1,8.29-16.12A12.81,12.81,0,0,1,32.07,35.54Z"/><path class="a" d="M60.32,7.73V0H52.59l2.8,2.8L43.93,14.26A18.2,18.2,0,0,0,11.84,31.4L0,43.24l2.16,2.12L13.44,34.05a18.29,18.29,0,0,0,14.72,7.49,18,18,0,0,0,2.66-.2l1.5,4.67-2.67.85,7.92,24.7,11-3.52-7.92-24.7-2.67.86-1.5-4.68a18.17,18.17,0,0,0,9-21.75c-0.07-.21-0.15-0.4-0.23-0.6L57.52,4.92ZM38.41,45.63h0l1.24-.4,7,21.84-8.11,2.6-7-21.84,5.11-1.64Zm-1.89-1-2.77.89-1.44-4.49q0.7-.17,1.41-0.39c0.47-.15.92-0.33,1.37-0.51Zm6.49-13.65a16.71,16.71,0,1,1,1.05-12.74A16.71,16.71,0,0,1,43.01,30.98Z"/><path class="a" d="M33,25.2l-7.48-7.48-8.13,8.13c0.07,0.29.14,0.58,0.23,0.86a11.15017,11.15017,0,0,0,1,2.17l6.93-6.93,7.48,7.48,6.21-6.21a11.11,11.11,0,0,0-.65-3.59Z"/></svg>