<svg xmlns="http://www.w3.org/2000/svg" viewBox="0 0 87.23 47.53"><defs><style>.cls-1{fill:#fff;}</style></defs><title>Asset 3</title><g id="Layer_2" data-name="Layer 2"><g id="Layer_1-2" data-name="Layer 1"><path class="cls-1" d="M17.66,21.44c5.2,0,9.44-4.5,9.44-10s-4.23-10-9.44-10-9.44,4.5-9.44,10S12.46,21.44,17.66,21.44Zm0-18.25c4.21,0,7.64,3.69,7.64,8.23s-3.43,8.23-7.64,8.23S10,15.95,10,11.41,13.45,3.19,17.66,3.19Z"/><path class="cls-1" d="M69.56,21.44c5.2,0,9.44-4.5,9.44-10s-4.23-10-9.44-10-9.44,4.5-9.44,10S64.36,21.44,69.56,21.44Zm0-18.25c4.21,0,7.64,3.69,7.64,8.23s-3.43,8.23-7.64,8.23-7.64-3.69-7.64-8.23S65.35,3.19,69.56,3.19Z"/><path class="cls-1" d="M43.61,22.73A11.16,11.16,0,0,0,54.54,11.37,11.16,11.16,0,0,0,43.61,0,11.16,11.16,0,0,0,32.69,11.37,11.16,11.16,0,0,0,43.61,22.73Zm0-20.93a9.36,9.36,0,0,1,9.12,9.57,9.36,9.36,0,0,1-9.12,9.56,9.36,9.36,0,0,1-9.12-9.56A9.36,9.36,0,0,1,43.61,1.8Z"/><path class="cls-1" d="M77.77,20.42l-.4-.08-.32.24a12.42,12.42,0,0,1-15,0l-.32-.24-.4.08a11.59,11.59,0,0,0-5.15,2.48A13.22,13.22,0,0,0,53,21.82l-.4-.08-.32.24A14.38,14.38,0,0,1,35,22l-.32-.24-.4.08A13.22,13.22,0,0,0,31,22.9a11.59,11.59,0,0,0-5.15-2.48l-.4-.08-.32.24a12.42,12.42,0,0,1-15,0l-.32-.24-.4.08A11.77,11.77,0,0,0,0,32v6.54l.14.22c1,1.64,3.6,2.85,7.66,3.6l.5.09a53.24,53.24,0,0,0,8.7.67,60.26,60.26,0,0,0,6.69-.4c1.19,1.82,4.09,3.16,8.63,4l.74.14a61.43,61.43,0,0,0,9.81.74,64.83,64.83,0,0,0,11.43-1l.43-.08.25,0c4.25-.86,7.08-2.09,8.44-3.65,1.77.17,3.61.28,5.48.28a56.58,56.58,0,0,0,10.21-.88l.38-.08c3.82-.76,6.36-1.87,7.53-3.3l.2-.25V32A11.78,11.78,0,0,0,77.77,20.42ZM9.13,40.7,7.29,35.05l-.18,5.28C4.44,39.74,2.55,38.9,1.8,38V32a10,10,0,0,1,7.63-9.69,14.23,14.23,0,0,0,16.47,0,9.81,9.81,0,0,1,3.47,1.6,13.38,13.38,0,0,0-5.87,11.05v6A57.17,57.17,0,0,1,9.13,40.7Zm52.81,1.06c-1,1-3.23,2-6.27,2.68l-.2-5.13-2,5.56a66.78,66.78,0,0,1-19.62.22L31.81,39.2l-.19,5.48C28.4,44,26.17,43,25.29,41.83V34.92A11.57,11.57,0,0,1,34.2,23.67a16.18,16.18,0,0,0,18.83,0,11.57,11.57,0,0,1,8.91,11.25Zm23.49-3.88c-.88.86-2.71,1.64-5.26,2.23l-.2-5-1.75,5.35A58.76,58.76,0,0,1,63.74,41v-6.1a13.38,13.38,0,0,0-5.87-11,9.81,9.81,0,0,1,3.47-1.6,14.23,14.23,0,0,0,16.46,0A10,10,0,0,1,85.43,32Z"/></g></g></svg>