<svg xmlns="http://www.w3.org/2000/svg" viewBox="0 0 92.94 53.23"><defs><style>.cls-1{fill:#fff;}</style></defs><title>Asset 2</title><g id="Layer_2" data-name="Layer 2"><g id="Layer_1-2" data-name="Layer 1"><path class="cls-1" d="M15.76,26.85a8.83,8.83,0,0,0,8.64-9,8.83,8.83,0,0,0-8.64-9,8.83,8.83,0,0,0-8.64,9A8.83,8.83,0,0,0,15.76,26.85Zm0-16.18a7,7,0,0,1,6.84,7.19A7,7,0,0,1,15.76,25a7,7,0,0,1-6.84-7.19A7,7,0,0,1,15.76,10.67Z"/><path class="cls-1" d="M54.1,22.77v5.75c0,1.16.64,2.77,3.68,3.88a21.58,21.58,0,0,0,7.11,1.07c5.37,0,10.79-1.53,10.79-4.95V22.77h-.26l7.39-2.93v6.67L81.57,32h4.29l-1.24-5.46V19.25s0-.08,0-.12l1.55-.62L64.89,10.08,43.63,18.51l10.73,4.26Zm19.78,5.75c0,1.76-3.95,3.15-9,3.15s-9-1.38-9-3.15V23.38l9,3.57,9-3.57Zm-25.37-10L64.89,12,79,17.61H66.42a1.78,1.78,0,1,0,0,1.8H79L64.89,25Zm16.38,0v0l0,0Z"/><path class="cls-1" d="M36.85,0V25.74L22.52,27.32l-.2.15a10.91,10.91,0,0,1-13.14,0l-.32-.25-.4.08A10.54,10.54,0,0,0,0,37.63V49.1l.13.22C1.06,50.81,3.37,51.9,7,52.55l.58.11a47.71,47.71,0,0,0,7.61.57,50.21,50.21,0,0,0,8.87-.75l.54-.1c3.41-.69,5.67-1.69,6.72-3l.2-.25v-.32c0-.26,0-.63,0-1.09-.08-2.56-.29-9.34,1.57-11a19.88,19.88,0,0,1,3.79-1.22V45.4H92.94V0Zm-5,35.37c-2.2,2-2.34,7.4-2.18,12.43,0,.26,0,.49,0,.69-.6.56-2,1.43-5.46,2.12l-.51.09A51.32,51.32,0,0,1,8.58,51l-.47-9.76-1.8,0,0,9.31c-2.23-.5-3.82-1.22-4.47-2V37.63a8.74,8.74,0,0,1,6.64-8.47,12.72,12.72,0,0,0,14.77-.1L44,26.76V32C40.18,32.77,32.89,34.44,31.87,35.37ZM91.14,43.6H38.65V35c2-.49,4.24-1,6.41-1.48l.71-.15V24.75l-7.12.79V1.8H91.14Z"/></g></g></svg>