<svg xmlns="http://www.w3.org/2000/svg" viewBox="0 0 107.55422 40.13518"><defs><style>.a{fill:#005d7d;}.b{fill:#495965;}.c{fill:#c4d82e;}</style></defs><title>logo_sirfdn</title><path class="a" d="M137.2399,30.66721l0.724-.858a4.92671,4.92671,0,0,0,3.548,1.464c1.39,0,2.307-.739,2.307-1.759v-0.03c0-.961-0.518-1.508-2.691-1.966-2.38-.518-3.474-1.286-3.474-2.987v-0.029c0-1.626,1.434-2.824,3.4-2.824a5.399,5.399,0,0,1,3.637,1.272l-0.68.901a4.54758,4.54758,0,0,0-2.986-1.123c-1.346,0-2.203.739-2.203,1.67v0.03c0,0.976.532,1.523,2.809,2.011,2.306,0.502,3.37,1.345,3.37,2.927v0.029c0,1.775-1.478,2.928-3.533,2.928a6.05431,6.05431,0,0,1-4.228-1.656" transform="translate(-120.67808 0.00007)"/><rect class="a" x="26.43592" y="21.82667" width="1.168" height="10.349"/><path class="a" d="M155.2878,27.10421c1.553,0,2.661-.798,2.661-2.129v-0.03c0-1.271-.975-2.04-2.646-2.04h-3.193v4.199h3.178Zm-4.346-5.278h4.45a4.08382,4.08382,0,0,1,2.942,1.035,2.86111,2.86111,0,0,1,.798,2.04v0.03a3.0292,3.0292,0,0,1-2.809,3.016l3.179,4.228h-1.434l-3.001-4.021h-2.957v4.021h-1.168v-10.349Z" transform="translate(-120.67808 0.00007)"/><polygon class="b" points="41.227 21.826 47.785 21.826 47.785 22.536 41.919 22.536 41.919 26.779 47.187 26.779 47.187 27.488 41.919 27.488 41.919 32.175 41.227 32.175 41.227 21.826"/><path class="b" d="M175.1545,28.43481v-0.03a3.03189,3.03189,0,0,0-2.794-3.267,2.98506,2.98506,0,0,0-2.767,3.238v0.029a3.03222,3.03222,0,0,0,2.794,3.268,2.9857,2.9857,0,0,0,2.767-3.238m-6.266,0v-0.03a3.725,3.725,0,0,1,3.499-3.947,3.68658,3.68658,0,0,1,3.472,3.918v0.029a3.72594,3.72594,0,0,1-3.499,3.948,3.68592,3.68592,0,0,1-3.472-3.918" transform="translate(-120.67808 0.00007)"/><path class="b" d="M177.13631,29.24791v-4.613h0.652v4.48c0,1.552.785,2.572,2.155,2.572a2.47081,2.47081,0,0,0,2.354-2.691v-4.361h0.652v7.54h-0.652v-1.404a2.63209,2.63209,0,0,1-2.447,1.582c-1.716,0-2.714-1.302-2.714-3.105" transform="translate(-120.67808 0.00007)"/><path class="b" d="M184.5593,24.63521h0.652v1.405a2.63248,2.63248,0,0,1,2.448-1.582c1.716,0,2.713,1.301,2.713,3.104v4.613h-0.652v-4.48c0-1.552-.784-2.572-2.155-2.572a2.47081,2.47081,0,0,0-2.354,2.691v4.361h-0.652v-7.54Z" transform="translate(-120.67808 0.00007)"/><path class="b" d="M197.5432,28.41981v-0.029a3.01418,3.01418,0,0,0-2.767-3.238c-1.477,0-2.661,1.197-2.661,3.223v0.029c0,1.981,1.237,3.253,2.661,3.253a3.02385,3.02385,0,0,0,2.767-3.238m-6.133.015v-0.03c0-2.454,1.663-3.947,3.299-3.947a3.23031,3.23031,0,0,1,2.794,1.804v-4.879h0.652v10.792h-0.652v-1.685a3.25185,3.25185,0,0,1-2.794,1.863c-1.636,0-3.299-1.464-3.299-3.918" transform="translate(-120.67808 0.00007)"/><path class="b" d="M204.69969,29.35111v-0.857a8.13825,8.13825,0,0,0-2.301-.34c-1.437,0-2.235.709-2.235,1.759v0.03a1.8011,1.8011,0,0,0,1.969,1.729,2.41438,2.41438,0,0,0,2.567-2.321m-5.228.636v-0.03c0-1.567,1.211-2.454,2.967-2.454a7.37393,7.37393,0,0,1,2.248.326v-0.326a2.05223,2.05223,0,0,0-2.235-2.306,4.1955,4.1955,0,0,0-2.129.606l-0.239-.636a5.02247,5.02247,0,0,1,2.408-.65,2.76019,2.76019,0,0,1,2.141.828,3.04659,3.04659,0,0,1,.692,2.129v4.701h-0.638v-1.257a3.00645,3.00645,0,0,1-2.594,1.434,2.44274,2.44274,0,0,1-2.621-2.365" transform="translate(-120.67808 0.00007)"/><path class="b" d="M207.4268,30.23811v-4.938h-0.984v-0.665h0.984v-2.41h0.652v2.41h2.381v0.665h-2.381v4.864a1.25381,1.25381,0,0,0,1.357,1.464,2.08688,2.08688,0,0,0,.997-0.266v0.68a2.28452,2.28452,0,0,1-1.104.266,1.82911,1.82911,0,0,1-1.902-2.07" transform="translate(-120.67808 0.00007)"/><path class="b" d="M211.883,32.17461h0.652v-7.539h-0.652v7.539Zm-0.08-9.505h0.812v-0.991h-0.812v0.991Z" transform="translate(-120.67808 0.00007)"/><path class="b" d="M220.30429,28.43481v-0.03a3.03189,3.03189,0,0,0-2.794-3.267,2.98506,2.98506,0,0,0-2.767,3.238v0.029a3.03222,3.03222,0,0,0,2.794,3.268,2.9857,2.9857,0,0,0,2.767-3.238m-6.266,0v-0.03a3.725,3.725,0,0,1,3.499-3.947,3.68658,3.68658,0,0,1,3.472,3.918v0.029a3.72594,3.72594,0,0,1-3.499,3.948,3.68592,3.68592,0,0,1-3.472-3.918" transform="translate(-120.67808 0.00007)"/><path class="b" d="M222.4191,24.63521h0.652v1.405a2.63248,2.63248,0,0,1,2.448-1.582c1.716,0,2.713,1.301,2.713,3.104v4.613h-0.651v-4.48c0-1.552-.785-2.572-2.156-2.572a2.47081,2.47081,0,0,0-2.354,2.691v4.361h-0.652v-7.54Z" transform="translate(-120.67808 0.00007)"/><path class="a" d="M120.8322,31.61841a0.17023,0.17023,0,0,1-.039-0.002,0.142,0.142,0,0,1-.103-0.137c-0.211-5.468,2.341-10.869,7.184-15.206,5.191-4.649,12.375-7.56,20.774-8.418,10.267-1.049,21.942,1.126,33.763,6.289a0.1492,0.1492,0,0,1-.012.289h-0.005a0.118,0.118,0,0,1-.058-0.009c-7.82-3.32-18.798-4.757-28.651-3.75-9.231.943-25.761,4.908-32.747,20.863a0.136,0.136,0,0,1-.106.081" transform="translate(-120.67808 0.00007)"/><path class="c" d="M155.97681,0.00021l-0.015.003a54.46161,54.46161,0,0,0-16.993,7.739c-4.359,3.118-7.426,6.708-8.869,10.382a11.966,11.966,0,0,0,.885,11.03,0.08289,0.08289,0,0,0,.095.033,0.07967,0.07967,0,0,0,.05-0.088c-1.346-7.637,3.335-14.116,7.498-18.206a48.78487,48.78487,0,0,1,17.381-10.74,0.07984,0.07984,0,0,0,.05-0.098,0.07882,0.07882,0,0,0-.082-0.055" transform="translate(-120.67808 0.00007)"/><path class="a" d="M139.345,38.51431l-0.222-1.659-1.043,1.659h1.265Zm-0.276-1.91h0.206l0.412,2.901h-0.206l-0.107-.806h-1.409l-0.507.806h-0.223Z" transform="translate(-120.67808 0.00007)"/><path class="a" d="M141.42609,39.11881a1.35869,1.35869,0,0,0,.363-0.918,0.61985,0.61985,0,0,0-.589-0.683,0.70936,0.70936,0,0,0-.503.218,1.4154,1.4154,0,0,0-.355.959,0.57547,0.57547,0,0,0,.532.679,0.78819,0.78819,0,0,0,.552-0.255m0.165-.004a0.9639,0.9639,0,0,1-.75.436,0.73331,0.73331,0,0,1-.701-0.835,1.589,1.589,0,0,1,.417-1.095,0.89834,0.89834,0,0,1,.634-0.28,0.71014,0.71014,0,0,1,.693.552l0.333-1.358h0.194l-0.729,2.971h-0.19Z" transform="translate(-120.67808 0.00007)"/><polygon class="a" points="21.935 37.386 22.141 37.386 22.355 39.258 23.48 37.386 23.703 37.386 22.384 39.522 22.219 39.522 21.935 37.386"/><path class="a" d="M145.675,38.71181l0.062-.247a2.037,2.037,0,0,0-.647-0.107,0.66414,0.66414,0,0,0-.478.177,0.59721,0.59721,0,0,0-.165.419,0.40224,0.40224,0,0,0,.441.424,0.85643,0.85643,0,0,0,.787-0.666m-1.43.259a0.76683,0.76683,0,0,1,.218-0.547,0.89448,0.89448,0,0,1,.643-0.235,2.24789,2.24789,0,0,1,.668.115l0.016-.07a1.39186,1.39186,0,0,0,.033-0.259,0.444,0.444,0,0,0-.535-0.436,1.25717,1.25717,0,0,0-.516.107l-0.053-.173a1.48841,1.48841,0,0,1,.581-0.115,0.605,0.605,0,0,1,.713.588,1.45219,1.45219,0,0,1-.045.317l-0.297,1.243h-0.194l0.087-.337a0.89688,0.89688,0,0,1-.717.382,0.56267,0.56267,0,0,1-.602-0.58" transform="translate(-120.67808 0.00007)"/><path class="a" d="M146.81219,37.38611h0.19l-0.087.366a0.85711,0.85711,0,0,1,.697-0.411,0.551,0.551,0,0,1,.585.592,1.59509,1.59509,0,0,1-.046.326l-0.296,1.246h-0.194l0.305-1.263a1.23461,1.23461,0,0,0,.037-0.292,0.40585,0.40585,0,0,0-.449-0.436,0.88544,0.88544,0,0,0-.758.716l-0.31,1.275h-0.193Z" transform="translate(-120.67808 0.00007)"/><path class="a" d="M148.576,38.70311a1.53823,1.53823,0,0,1,.416-1.054,0.99586,0.99586,0,0,1,.693-0.304,0.7465,0.7465,0,0,1,.667.383l-0.161.111a0.57206,0.57206,0,0,0-.519-0.317,0.76978,0.76978,0,0,0-.531.243,1.37652,1.37652,0,0,0-.359.918,0.59928,0.59928,0,0,0,.581.683,0.76421,0.76421,0,0,0,.528-0.227l0.119,0.136a0.96124,0.96124,0,0,1-.659.272,0.77325,0.77325,0,0,1-.775-0.844" transform="translate(-120.67808 0.00007)"/><path class="a" d="M150.96278,37.38561l-0.52,2.12h0.194l0.515-2.12h-0.189Zm0.176-.798-0.07.28h0.231l0.07-.28h-0.231Z" transform="translate(-120.67808 0.00007)"/><path class="a" d="M151.8396,37.38611h0.19l-0.087.366a0.85568,0.85568,0,0,1,.697-0.411,0.551,0.551,0,0,1,.585.592,1.59509,1.59509,0,0,1-.046.326l-0.296,1.246h-0.194l0.305-1.263a1.23461,1.23461,0,0,0,.037-0.292,0.40585,0.40585,0,0,0-.449-0.436,0.88544,0.88544,0,0,0-.758.716l-0.31,1.275h-0.193Z" transform="translate(-120.67808 0.00007)"/><path class="a" d="M154.97549,38.93381a1.12245,1.12245,0,0,0,.313-0.77,0.60306,0.60306,0,0,0-.597-0.642,0.74911,0.74911,0,0,0-.528.231,1.20825,1.20825,0,0,0-.317.823,0.554,0.554,0,0,0,.556.609,0.83313,0.83313,0,0,0,.573-0.251m-1.57.897,0.119-.152a1.17916,1.17916,0,0,0,.734.271,0.706,0.706,0,0,0,.536-0.197,1.00276,1.00276,0,0,0,.243-0.486l0.078-.313a0.97858,0.97858,0,0,1-.75.408,0.72066,0.72066,0,0,1-.721-0.782,1.37565,1.37565,0,0,1,.375-0.943,0.96062,0.96062,0,0,1,.672-0.296,0.6913,0.6913,0,0,1,.68.535l0.123-.49h0.19l-0.462,1.914a1.13993,1.13993,0,0,1-.288.572,0.90075,0.90075,0,0,1-.688.26,1.38359,1.38359,0,0,1-.841-0.301" transform="translate(-120.67808 0.00007)"/><path class="a" d="M157.35,37.38561l-0.52,2.12h0.194l0.515-2.12H157.35Zm0.177-.798-0.07.28h0.23l0.07-.28h-0.23Z" transform="translate(-120.67808 0.00007)"/><path class="a" d="M158.22681,37.38611h0.19l-0.087.366a0.85568,0.85568,0,0,1,.697-0.411,0.551,0.551,0,0,1,.585.592,1.59508,1.59508,0,0,1-.046.326l-0.296,1.246h-0.194l0.305-1.263a1.23461,1.23461,0,0,0,.037-0.292,0.40585,0.40585,0,0,0-.449-0.436,0.88544,0.88544,0,0,0-.758.716l-0.31,1.275h-0.193Z" transform="translate(-120.67808 0.00007)"/><path class="a" d="M160.0937,39.16831a1.03314,1.03314,0,0,1,.029-0.21l0.338-1.395h-0.272l0.041-.177h0.272l0.161-.65h0.193l-0.16.65h0.597l-0.041.177h-0.602l-0.342,1.432a0.688,0.688,0,0,0-.02.148,0.2302,0.2302,0,0,0,.284.214,0.7132,0.7132,0,0,0,.256-0.057l-0.042.185a0.62811,0.62811,0,0,1-.259.049,0.37256,0.37256,0,0,1-.433-0.366" transform="translate(-120.67808 0.00007)"/><path class="a" d="M161.58939,38.34491h1.286a0.85,0.85,0,0,0,.029-0.247,0.4999,0.4999,0,0,0-.486-0.58,0.73582,0.73582,0,0,0-.512.226,1.33161,1.33161,0,0,0-.317.601m-0.037.173a1.28,1.28,0,0,0-.008.173,0.59932,0.59932,0,0,0,.601.675,0.9079,0.9079,0,0,0,.59-0.222l0.099,0.144a1.07378,1.07378,0,0,1-.693.259,0.77706,0.77706,0,0,1-.799-0.848,1.5615,1.5615,0,0,1,.42-1.062,0.938,0.938,0,0,1,.664-0.296,0.67024,0.67024,0,0,1,.672.753,1.46687,1.46687,0,0,1-.066.424h-1.48Z" transform="translate(-120.67808 0.00007)"/><path class="a" d="M163.8396,37.38611h0.19l-0.124.502a1.04344,1.04344,0,0,1,.911-0.531l-0.054.206h-0.016a1.05306,1.05306,0,0,0-.977.885l-0.256,1.057h-0.193Z" transform="translate(-120.67808 0.00007)"/><polygon class="a" points="44.328 37.386 44.534 37.386 44.748 39.258 45.873 37.386 46.096 37.386 44.777 39.522 44.612 39.522 44.328 37.386"/><path class="a" d="M167.00429,38.34491h1.286a0.85,0.85,0,0,0,.029-0.247,0.4999,0.4999,0,0,0-.486-0.58,0.73582,0.73582,0,0,0-.512.226,1.33161,1.33161,0,0,0-.317.601m-0.037.173a1.28,1.28,0,0,0-.008.173,0.59932,0.59932,0,0,0,.601.675,0.9079,0.9079,0,0,0,.59-0.222l0.099,0.144a1.07378,1.07378,0,0,1-.693.259,0.77706,0.77706,0,0,1-.799-0.848,1.5615,1.5615,0,0,1,.42-1.062,0.938,0.938,0,0,1,.664-0.296,0.67024,0.67024,0,0,1,.672.753,1.46687,1.46687,0,0,1-.066.424h-1.48Z" transform="translate(-120.67808 0.00007)"/><path class="a" d="M169.2545,37.38611h0.19l-0.087.366a0.85568,0.85568,0,0,1,.697-0.411,0.551,0.551,0,0,1,.585.592,1.59508,1.59508,0,0,1-.046.326l-0.296,1.246h-0.194l0.305-1.263a1.23461,1.23461,0,0,0,.037-0.292,0.40585,0.40585,0,0,0-.449-0.436,0.88544,0.88544,0,0,0-.758.716l-0.31,1.275h-0.193Z" transform="translate(-120.67808 0.00007)"/><path class="a" d="M171.1214,39.16831a1.03314,1.03314,0,0,1,.029-0.21l0.338-1.395h-0.272l0.041-.177h0.272l0.161-.65h0.193l-0.16.65h0.597l-0.041.177h-0.602l-0.342,1.432a0.688,0.688,0,0,0-.02.148,0.2302,0.2302,0,0,0,.284.214,0.7132,0.7132,0,0,0,.256-0.057l-0.042.185a0.63118,0.63118,0,0,1-.259.049,0.37256,0.37256,0,0,1-.433-0.366" transform="translate(-120.67808 0.00007)"/><path class="a" d="M172.8606,37.38561l-0.52,2.12h0.194l0.516-2.12h-0.19Zm0.177-.798-0.07.28h0.23l0.07-.28h-0.23Z" transform="translate(-120.67808 0.00007)"/><path class="a" d="M174.6572,39.12641a1.3426,1.3426,0,0,0,.35-0.905,0.60255,0.60255,0,0,0-.593-0.699,0.77209,0.77209,0,0,0-.54.242,1.34128,1.34128,0,0,0-.35.906,0.60255,0.60255,0,0,0,.593.699,0.77093,0.77093,0,0,0,.54-0.243m0.552-.913a1.47118,1.47118,0,0,1-.404,1.029,0.99341,0.99341,0,0,1-.705.309,0.787,0.787,0,0,1-.778-0.873,1.47118,1.47118,0,0,1,.404-1.029,0.9901,0.9901,0,0,1,.704-0.308,0.7842,0.7842,0,0,1,.779.872" transform="translate(-120.67808 0.00007)"/><path class="a" d="M175.9756,37.38611h0.189l-0.086.366a0.85568,0.85568,0,0,1,.697-0.411,0.551,0.551,0,0,1,.585.592,1.65635,1.65635,0,0,1-.045.326l-0.297,1.246h-0.194l0.305-1.263a1.23461,1.23461,0,0,0,.037-0.292,0.40585,0.40585,0,0,0-.449-0.436,0.88544,0.88544,0,0,0-.758.716l-0.31,1.275h-0.193Z" transform="translate(-120.67808 0.00007)"/><path class="a" d="M179.0705,38.71181l0.062-.247a2.04186,2.04186,0,0,0-.647-0.107,0.66414,0.66414,0,0,0-.478.177,0.59284,0.59284,0,0,0-.165.419,0.40224,0.40224,0,0,0,.441.424,0.85643,0.85643,0,0,0,.787-0.666m-1.43.259a0.76683,0.76683,0,0,1,.218-0.547,0.89448,0.89448,0,0,1,.643-0.235,2.24789,2.24789,0,0,1,.668.115l0.016-.07a1.39186,1.39186,0,0,0,.033-0.259,0.444,0.444,0,0,0-.535-0.436,1.25717,1.25717,0,0,0-.516.107l-0.053-.173a1.4884,1.4884,0,0,1,.581-0.115,0.605,0.605,0,0,1,.713.588,1.40172,1.40172,0,0,1-.046.317l-0.296,1.243h-0.194l0.087-.337a0.89728,0.89728,0,0,1-.718.382,0.5624,0.5624,0,0,1-.601-0.58" transform="translate(-120.67808 0.00007)"/><polygon class="a" points="59.768 36.535 59.039 39.506 59.233 39.506 59.958 36.535 59.768 36.535"/><path class="a" d="M182.0948,37.38611h0.19l-0.124.502a1.04344,1.04344,0,0,1,.911-0.531l-0.054.206h-0.016a1.05306,1.05306,0,0,0-.977.885l-0.255,1.057h-0.194Z" transform="translate(-120.67808 0.00007)"/><path class="a" d="M184.34079,38.71181l0.062-.247a2.037,2.037,0,0,0-.647-0.107,0.66414,0.66414,0,0,0-.478.177,0.59721,0.59721,0,0,0-.165.419,0.40224,0.40224,0,0,0,.441.424,0.85643,0.85643,0,0,0,.787-0.666m-1.43.259a0.76354,0.76354,0,0,1,.219-0.547,0.89111,0.89111,0,0,1,.643-0.235,2.24673,2.24673,0,0,1,.667.115l0.016-.07a1.39186,1.39186,0,0,0,.033-0.259,0.444,0.444,0,0,0-.535-0.436,1.25243,1.25243,0,0,0-.515.107l-0.054-.173a1.48841,1.48841,0,0,1,.581-0.115,0.60458,0.60458,0,0,1,.713.588,1.45219,1.45219,0,0,1-.045.317l-0.297,1.243h-0.194l0.087-.337a0.89688,0.89688,0,0,1-.717.382,0.56267,0.56267,0,0,1-.602-0.58" transform="translate(-120.67808 0.00007)"/><path class="a" d="M186.36,39.11881a1.35869,1.35869,0,0,0,.363-0.918,0.62057,0.62057,0,0,0-.59-0.683,0.70885,0.70885,0,0,0-.502.218,1.4154,1.4154,0,0,0-.355.959,0.57547,0.57547,0,0,0,.532.679,0.78819,0.78819,0,0,0,.552-0.255m0.165-.004a0.9639,0.9639,0,0,1-.75.436,0.73331,0.73331,0,0,1-.701-0.835,1.59283,1.59283,0,0,1,.416-1.095,0.90232,0.90232,0,0,1,.635-0.28,0.71014,0.71014,0,0,1,.693.552l0.333-1.358h0.194l-0.729,2.971h-0.19Z" transform="translate(-120.67808 0.00007)"/><path class="a" d="M187.8195,37.38561l-0.52,2.12h0.194l0.515-2.12h-0.189Zm0.177-.798-0.07.28h0.23l0.07-.28h-0.23Z" transform="translate(-120.67808 0.00007)"/><path class="a" d="M189.616,39.12641a1.3426,1.3426,0,0,0,.35-0.905,0.60271,0.60271,0,0,0-.594-0.699,0.77167,0.77167,0,0,0-.539.242,1.33735,1.33735,0,0,0-.351.906,0.60271,0.60271,0,0,0,.594.699,0.77093,0.77093,0,0,0,.54-0.243m0.552-.913a1.47563,1.47563,0,0,1-.404,1.029,0.99519,0.99519,0,0,1-.705.309,0.7877,0.7877,0,0,1-.779-0.873,1.47561,1.47561,0,0,1,.404-1.029,0.99414,0.99414,0,0,1,.705-0.308,0.7842,0.7842,0,0,1,.779.872" transform="translate(-120.67808 0.00007)"/><polygon class="a" points="70.495 36.535 69.765 39.506 69.959 39.506 70.684 36.535 70.495 36.535"/><path class="a" d="M192.7599,39.12641a1.3426,1.3426,0,0,0,.35-0.905,0.60255,0.60255,0,0,0-.593-0.699,0.77209,0.77209,0,0,0-.54.242,1.34208,1.34208,0,0,0-.351.906,0.60271,0.60271,0,0,0,.594.699,0.77093,0.77093,0,0,0,.54-0.243m0.552-.913a1.47563,1.47563,0,0,1-.404,1.029,0.99341,0.99341,0,0,1-.705.309,0.787,0.787,0,0,1-.778-0.873,1.47118,1.47118,0,0,1,.404-1.029,0.9901,0.9901,0,0,1,.704-0.308,0.7842,0.7842,0,0,1,.779.872" transform="translate(-120.67808 0.00007)"/><path class="a" d="M195.0262,38.93381a1.12245,1.12245,0,0,0,.313-0.77,0.60367,0.60367,0,0,0-.597-0.642,0.74911,0.74911,0,0,0-.528.231,1.20825,1.20825,0,0,0-.317.823,0.554,0.554,0,0,0,.556.609,0.835,0.835,0,0,0,.573-0.251m-1.57.897,0.119-.152a1.17916,1.17916,0,0,0,.734.271,0.706,0.706,0,0,0,.536-0.197,1.00276,1.00276,0,0,0,.243-0.486l0.078-.313a0.97858,0.97858,0,0,1-.75.408,0.72066,0.72066,0,0,1-.721-0.782,1.37565,1.37565,0,0,1,.375-0.943,0.96062,0.96062,0,0,1,.672-0.296,0.6913,0.6913,0,0,1,.68.535l0.123-.49h0.19l-0.462,1.914a1.13993,1.13993,0,0,1-.288.572,0.90075,0.90075,0,0,1-.688.26,1.38359,1.38359,0,0,1-.841-0.301" transform="translate(-120.67808 0.00007)"/><path class="a" d="M196.1346,37.38611h0.202l0.268,1.877,1.104-1.877h0.223l-1.306,2.173a0.88757,0.88757,0,0,1-.726.576,0.60741,0.60741,0,0,1-.379-0.132l0.103-.16a0.50211,0.50211,0,0,0,.293.111,0.70879,0.70879,0,0,0,.54-0.457Z" transform="translate(-120.67808 0.00007)"/><path class="a" d="M199.0894,39.16831a1.03315,1.03315,0,0,1,.029-0.21l0.338-1.395h-0.272l0.041-.177h0.272l0.161-.65h0.193l-0.16.65h0.597l-0.041.177h-0.602l-0.342,1.432a0.688,0.688,0,0,0-.02.148,0.2302,0.2302,0,0,0,.284.214,0.7132,0.7132,0,0,0,.256-0.057l-0.042.185a0.62811,0.62811,0,0,1-.259.049,0.3721,0.3721,0,0,1-.433-0.366" transform="translate(-120.67808 0.00007)"/><path class="a" d="M201.0099,36.53451h0.193l-0.3,1.218a0.853,0.853,0,0,1,.696-0.411,0.55049,0.55049,0,0,1,.585.592,1.57629,1.57629,0,0,1-.045.325l-0.297,1.247h-0.193l0.305-1.263a1.29659,1.29659,0,0,0,.037-0.292,0.40658,0.40658,0,0,0-.449-0.437,0.88769,0.88769,0,0,0-.759.716l-0.309,1.276h-0.194Z" transform="translate(-120.67808 0.00007)"/><path class="a" d="M202.9837,37.38611h0.189l-0.123.502a1.04344,1.04344,0,0,1,.911-0.531l-0.054.206h-0.017a1.05293,1.05293,0,0,0-.976.885l-0.256,1.057h-0.193Z" transform="translate(-120.67808 0.00007)"/><path class="a" d="M205.271,39.12641a1.3426,1.3426,0,0,0,.35-0.905,0.60255,0.60255,0,0,0-.593-0.699,0.77209,0.77209,0,0,0-.54.242,1.34208,1.34208,0,0,0-.351.906,0.6032,0.6032,0,0,0,.594.699,0.77093,0.77093,0,0,0,.54-0.243m0.552-.913a1.47118,1.47118,0,0,1-.404,1.029,0.99341,0.99341,0,0,1-.705.309,0.787,0.787,0,0,1-.778-0.873,1.47118,1.47118,0,0,1,.404-1.029,0.9901,0.9901,0,0,1,.704-0.308,0.7842,0.7842,0,0,1,.779.872" transform="translate(-120.67808 0.00007)"/><path class="a" d="M206.2103,38.95411a1.61087,1.61087,0,0,1,.045-0.325l0.301-1.243h0.19l-0.305,1.259a1.54421,1.54421,0,0,0-.037.293,0.40928,0.40928,0,0,0,.449.44,0.88356,0.88356,0,0,0,.758-0.716l0.309-1.276h0.194l-0.515,2.12h-0.194l0.091-.367a0.87722,0.87722,0,0,1-.697.412,0.55394,0.55394,0,0,1-.589-0.597" transform="translate(-120.67808 0.00007)"/><path class="a" d="M209.72159,38.93381a1.12245,1.12245,0,0,0,.313-0.77,0.60367,0.60367,0,0,0-.597-0.642,0.74733,0.74733,0,0,0-.528.231,1.20825,1.20825,0,0,0-.317.823,0.554,0.554,0,0,0,.556.609,0.835,0.835,0,0,0,.573-0.251m-1.57.897,0.119-.152a1.17916,1.17916,0,0,0,.734.271,0.706,0.706,0,0,0,.536-0.197,1.00276,1.00276,0,0,0,.243-0.486l0.078-.313a0.98022,0.98022,0,0,1-.75.408,0.72066,0.72066,0,0,1-.721-0.782,1.37565,1.37565,0,0,1,.375-0.943,0.95884,0.95884,0,0,1,.672-0.296,0.69216,0.69216,0,0,1,.68.535l0.123-.49h0.19l-0.462,1.914a1.148,1.148,0,0,1-.288.572,0.90307,0.90307,0,0,1-.689.26,1.383,1.383,0,0,1-.84-0.301" transform="translate(-120.67808 0.00007)"/><path class="a" d="M211.2959,36.53451h0.193l-0.3,1.218a0.853,0.853,0,0,1,.696-0.411,0.55049,0.55049,0,0,1,.585.592,1.57629,1.57629,0,0,1-.045.325l-0.297,1.247h-0.193l0.305-1.263a1.29659,1.29659,0,0,0,.037-0.292,0.40658,0.40658,0,0,0-.449-0.437,0.88769,0.88769,0,0,0-.759.716l-0.309,1.276h-0.194Z" transform="translate(-120.67808 0.00007)"/><path class="a" d="M214.2504,37.38611h0.189l-0.123.502a1.04344,1.04344,0,0,1,.911-0.531l-0.054.206h-0.017a1.05293,1.05293,0,0,0-.976.885l-0.256,1.057h-0.193Z" transform="translate(-120.67808 0.00007)"/><path class="a" d="M215.44548,38.34491h1.286a0.88612,0.88612,0,0,0,.029-0.247,0.50006,0.50006,0,0,0-.487-0.58,0.73163,0.73163,0,0,0-.511.226,1.33161,1.33161,0,0,0-.317.601m-0.037.173a1.28,1.28,0,0,0-.008.173,0.59932,0.59932,0,0,0,.601.675,0.9079,0.9079,0,0,0,.59-0.222l0.099,0.144a1.07378,1.07378,0,0,1-.693.259,0.77654,0.77654,0,0,1-.799-0.848,1.55688,1.55688,0,0,1,.42-1.062,0.93621,0.93621,0,0,1,.664-0.296,0.67005,0.67005,0,0,1,.671.753,1.43331,1.43331,0,0,1-.066.424h-1.479Z" transform="translate(-120.67808 0.00007)"/><path class="a" d="M217.0813,39.17231l0.148-.136a0.83332,0.83332,0,0,0,.631.33,0.4508,0.4508,0,0,0,.478-0.404,0.5459,0.5459,0,0,0-.391-0.444,0.69063,0.69063,0,0,1-.495-0.593,0.61275,0.61275,0,0,1,.672-0.576,0.9511,0.9511,0,0,1,.68.313l-0.141.144a0.76068,0.76068,0,0,0-.552-0.284,0.41688,0.41688,0,0,0-.457.387,0.54062,0.54062,0,0,0,.4.44,0.70762,0.70762,0,0,1,.486.597,0.64781,0.64781,0,0,1-.697.596,0.99825,0.99825,0,0,1-.762-0.37" transform="translate(-120.67808 0.00007)"/><path class="a" d="M219.25308,38.34491h1.286a0.85,0.85,0,0,0,.029-0.247,0.50006,0.50006,0,0,0-.487-0.58,0.73163,0.73163,0,0,0-.511.226,1.33161,1.33161,0,0,0-.317.601m-0.037.173a1.28,1.28,0,0,0-.008.173,0.59932,0.59932,0,0,0,.601.675,0.9079,0.9079,0,0,0,.59-0.222l0.099,0.144a1.07378,1.07378,0,0,1-.693.259,0.77706,0.77706,0,0,1-.799-0.848,1.55688,1.55688,0,0,1,.42-1.062,0.93621,0.93621,0,0,1,.664-0.296,0.67005,0.67005,0,0,1,.671.753,1.4333,1.4333,0,0,1-.066.424h-1.479Z" transform="translate(-120.67808 0.00007)"/><path class="a" d="M222.4097,38.71181l0.062-.247a2.037,2.037,0,0,0-.647-0.107,0.66414,0.66414,0,0,0-.478.177,0.59721,0.59721,0,0,0-.165.419,0.40224,0.40224,0,0,0,.441.424,0.85643,0.85643,0,0,0,.787-0.666m-1.43.259a0.76354,0.76354,0,0,1,.219-0.547,0.89028,0.89028,0,0,1,.642-0.235,2.24789,2.24789,0,0,1,.668.115l0.016-.07a1.39186,1.39186,0,0,0,.033-0.259,0.444,0.444,0,0,0-.535-0.436,1.25717,1.25717,0,0,0-.516.107l-0.053-.173a1.48841,1.48841,0,0,1,.581-0.115,0.605,0.605,0,0,1,.713.588,1.45219,1.45219,0,0,1-.045.317l-0.297,1.243h-0.194l0.087-.337a0.89688,0.89688,0,0,1-.717.382,0.56267,0.56267,0,0,1-.602-0.58" transform="translate(-120.67808 0.00007)"/><path class="a" d="M223.5472,37.38611h0.189l-0.123.502a1.04344,1.04344,0,0,1,.911-0.531l-0.054.206h-0.017a1.05293,1.05293,0,0,0-.976.885l-0.256,1.057h-0.193Z" transform="translate(-120.67808 0.00007)"/><path class="a" d="M224.49049,38.70311a1.53823,1.53823,0,0,1,.416-1.054,0.99586,0.99586,0,0,1,.693-0.304,0.74529,0.74529,0,0,1,.667.383l-0.16.111a0.57367,0.57367,0,0,0-.52-0.317,0.76978,0.76978,0,0,0-.531.243,1.37652,1.37652,0,0,0-.359.918,0.59928,0.59928,0,0,0,.581.683,0.76421,0.76421,0,0,0,.528-0.227l0.119,0.136a0.9593,0.9593,0,0,1-.659.272,0.77325,0.77325,0,0,1-.775-0.844" transform="translate(-120.67808 0.00007)"/><path class="a" d="M227.0583,36.53451h0.193l-0.3,1.218a0.853,0.853,0,0,1,.696-0.411,0.55049,0.55049,0,0,1,.585.592,1.57629,1.57629,0,0,1-.045.325l-0.297,1.247h-0.193l0.305-1.263a1.29659,1.29659,0,0,0,.037-0.292,0.40658,0.40658,0,0,0-.449-0.437,0.88769,0.88769,0,0,0-.759.716l-0.309,1.276h-0.194Z" transform="translate(-120.67808 0.00007)"/></svg>