<svg xmlns="http://www.w3.org/2000/svg" viewBox="0 0 107.554 32.35298"><defs><style>.a{fill:#005d7d;}.b{fill:#495965;}.c{fill:#c4d82e;}</style></defs><title>logo_sirfnd_notag</title><rect class="a" x="26.43592" y="21.82667" width="1.168" height="10.349"/><polygon class="b" points="41.227 21.826 47.785 21.826 47.785 22.536 41.919 22.536 41.919 26.779 47.187 26.779 47.187 27.488 41.919 27.488 41.919 32.175 41.227 32.175 41.227 21.826"/><path class="b" d="M91.20491,32.17467h0.652v-7.539h-0.652v7.539Zm-0.08-9.505h0.812v-0.991h-0.812v0.991Z"/><path class="a" d="M16.56182,30.66727l0.724-.858a4.92671,4.92671,0,0,0,3.548,1.464c1.39,0,2.307-.739,2.307-1.759v-0.03c0-.961-0.518-1.508-2.691-1.966-2.38-.518-3.474-1.286-3.474-2.987v-0.029c0-1.626,1.434-2.824,3.4-2.824a5.399,5.399,0,0,1,3.637,1.272l-0.68.901a4.54758,4.54758,0,0,0-2.986-1.123c-1.346,0-2.203.739-2.203,1.67v0.03c0,0.976.532,1.523,2.809,2.011,2.306,0.502,3.37,1.345,3.37,2.927v0.029c0,1.775-1.478,2.928-3.533,2.928a6.05431,6.05431,0,0,1-4.228-1.656"/><path class="a" d="M34.60971,27.10427c1.553,0,2.661-.798,2.661-2.129v-0.03c0-1.271-.975-2.04-2.646-2.04h-3.193v4.199h3.178Zm-4.346-5.278h4.45a4.08382,4.08382,0,0,1,2.942,1.035,2.86111,2.86111,0,0,1,.798,2.04v0.03a3.0292,3.0292,0,0,1-2.809,3.016l3.179,4.228h-1.434l-3.001-4.021h-2.957v4.021h-1.168v-10.349Z"/><path class="b" d="M54.47641,28.43487v-0.03a3.03189,3.03189,0,0,0-2.794-3.267,2.98506,2.98506,0,0,0-2.767,3.238v0.029a3.03222,3.03222,0,0,0,2.794,3.268,2.9857,2.9857,0,0,0,2.767-3.238m-6.266,0v-0.03a3.725,3.725,0,0,1,3.499-3.947,3.68658,3.68658,0,0,1,3.472,3.918v0.029a3.72594,3.72594,0,0,1-3.499,3.948,3.68592,3.68592,0,0,1-3.472-3.918"/><path class="b" d="M56.45822,29.248V24.635h0.652v4.48c0,1.552.785,2.572,2.155,2.572a2.47081,2.47081,0,0,0,2.354-2.691V24.635h0.652v7.54h-0.652V30.771a2.63209,2.63209,0,0,1-2.447,1.582c-1.716,0-2.714-1.302-2.714-3.105"/><path class="b" d="M63.88121,24.63527h0.652v1.405a2.63248,2.63248,0,0,1,2.448-1.582c1.716,0,2.713,1.301,2.713,3.104v4.613h-0.652v-4.48c0-1.552-.784-2.572-2.155-2.572a2.47081,2.47081,0,0,0-2.354,2.691v4.361h-0.652v-7.54Z"/><path class="b" d="M76.86512,28.41987v-0.029a3.01418,3.01418,0,0,0-2.767-3.238c-1.477,0-2.661,1.197-2.661,3.223v0.029c0,1.981,1.237,3.253,2.661,3.253a3.02385,3.02385,0,0,0,2.767-3.238m-6.133.015v-0.03c0-2.454,1.663-3.947,3.299-3.947a3.23031,3.23031,0,0,1,2.794,1.804v-4.879h0.652v10.792h-0.652v-1.685a3.25185,3.25185,0,0,1-2.794,1.863c-1.636,0-3.299-1.464-3.299-3.918"/><path class="b" d="M84.02161,29.35117v-0.857a8.13825,8.13825,0,0,0-2.301-.34c-1.437,0-2.235.709-2.235,1.759v0.03a1.8011,1.8011,0,0,0,1.969,1.729,2.41438,2.41438,0,0,0,2.567-2.321m-5.228.636v-0.03c0-1.567,1.211-2.454,2.967-2.454a7.37393,7.37393,0,0,1,2.248.326v-0.326a2.05223,2.05223,0,0,0-2.235-2.306,4.1955,4.1955,0,0,0-2.129.606l-0.239-.636a5.02247,5.02247,0,0,1,2.408-.65,2.76019,2.76019,0,0,1,2.141.828,3.04659,3.04659,0,0,1,.692,2.129v4.701h-0.638v-1.257a3.00645,3.00645,0,0,1-2.594,1.434,2.44273,2.44273,0,0,1-2.621-2.365"/><path class="b" d="M86.74872,30.23817v-4.938h-0.984v-0.665h0.984v-2.41h0.652v2.41h2.381v0.665h-2.381v4.864a1.25381,1.25381,0,0,0,1.357,1.464,2.08688,2.08688,0,0,0,.997-0.266v0.68a2.28452,2.28452,0,0,1-1.104.266,1.82911,1.82911,0,0,1-1.902-2.07"/><path class="b" d="M99.62621,28.43487v-0.03a3.03189,3.03189,0,0,0-2.794-3.267,2.98506,2.98506,0,0,0-2.767,3.238v0.029a3.03222,3.03222,0,0,0,2.794,3.268,2.9857,2.9857,0,0,0,2.767-3.238m-6.266,0v-0.03a3.725,3.725,0,0,1,3.499-3.947,3.68658,3.68658,0,0,1,3.472,3.918v0.029a3.72594,3.72594,0,0,1-3.499,3.948,3.68592,3.68592,0,0,1-3.472-3.918"/><path class="b" d="M101.741,24.63527h0.652v1.405a2.63248,2.63248,0,0,1,2.448-1.582c1.716,0,2.713,1.301,2.713,3.104v4.613h-0.651v-4.48c0-1.552-.785-2.572-2.156-2.572a2.47081,2.47081,0,0,0-2.354,2.691v4.361h-0.652v-7.54Z"/><path class="a" d="M0.15412,31.61847a0.17022,0.17022,0,0,1-.039-0.002,0.142,0.142,0,0,1-.103-0.137c-0.211-5.468,2.341-10.869,7.184-15.206,5.191-4.649,12.375-7.56,20.774-8.418,10.267-1.049,21.942,1.126,33.763,6.289a0.1492,0.1492,0,0,1-.012.289h-0.005a0.118,0.118,0,0,1-.058-0.009c-7.82-3.32-18.798-4.757-28.651-3.75-9.231.943-25.761,4.908-32.747,20.863a0.136,0.136,0,0,1-.106.081"/><path class="c" d="M35.29872,0.00027l-0.015.003a54.46161,54.46161,0,0,0-16.993,7.739c-4.359,3.118-7.426,6.708-8.869,10.382a11.966,11.966,0,0,0,.885,11.03,0.08289,0.08289,0,0,0,.095.033,0.07967,0.07967,0,0,0,.05-0.088c-1.346-7.637,3.335-14.116,7.498-18.206a48.78487,48.78487,0,0,1,17.381-10.74,0.07984,0.07984,0,0,0,.05-0.098,0.07882,0.07882,0,0,0-.082-0.055"/></svg>