<svg xmlns="http://www.w3.org/2000/svg" viewBox="0 0 353.73352 386.2303"><defs><style>.a,.b{fill:none;}.a{stroke:#939598;stroke-width:2px;}.c{fill:#005d7d;}.d{fill:#c4d82e;}.e{fill:#495965;}</style></defs><title>logos_sir</title><line class="a" x1="348" y1="220" x2="12" y2="220"/><rect class="b" x="124.41667" y="246.23" width="228.233" height="57.27"/><rect class="b" x="124.41667" y="246.23" width="228.233" height="57.27"/><rect class="b" x="124.41667" y="246.23" width="228.233" height="57.27"/><rect class="b" x="124.41667" y="246.23" width="228.233" height="57.27"/><rect class="b" x="124.41667" y="246.23" width="228.233" height="57.27"/><rect class="b" x="124.41667" y="246.23" width="228.233" height="57.27"/><rect class="b" x="124.41667" y="246.23" width="228.233" height="57.27"/><rect class="b" x="124.41667" y="246.23" width="228.233" height="57.27"/><rect class="b" x="124.41667" y="246.23" width="228.233" height="57.27"/><rect class="b" x="124.41667" y="246.23" width="228.233" height="57.27"/><rect class="b" x="124.41667" y="246.23" width="228.233" height="57.27"/><path class="c" d="M10.50425,113.46395a0.55693,0.55693,0,0,1-.12761-0.00654,0.46476,0.46476,0,0,1-.337-0.44827C9.34924,95.11461,17.69936,77.44258,33.5489,63.25194,50.53382,48.04044,74.04309,38.51239,101.52457,35.705c33.59682-3.43232,71.80063,3.68426,110.48213,20.58083a0.48613,0.48613,0,0,1-.03927.94234,0.14163,0.14163,0,0,0-.01635.00327A0.39331,0.39331,0,0,1,211.758,57.202c-25.587-10.8663-61.5102-15.56814-93.74916-12.27325-30.207,3.08548-84.29636,16.05893-107.15778,68.27014a0.4451,0.4451,0,0,1-.34683.265" transform="translate(-10 -10)"/><path class="d" d="M125.50566,10.00089a0.13142,0.13142,0,0,0-.04909.00982c-21.53953,5.955-40.769,14.71088-55.60425,25.32522C55.58971,45.538,45.55451,57.28447,40.82975,69.30577c-4.92762,12.53828-3.92639,25.02093,2.899,36.09336a0.25521,0.25521,0,0,0,.23886.12434,0.52232,0.52232,0,0,0,.06871-0.01636,0.25518,0.25518,0,0,0,.1636-0.28466C39.7958,80.22769,55.112,59.02844,68.73658,45.646c18.21519-17.89126,41.322-29.88638,56.87378-35.14447a0.26127,0.26127,0,0,0,.1636-0.32067,0.258,0.258,0,0,0-.26829-0.18" transform="translate(-10 -10)"/><path class="e" d="M82.28131,152.91143c4.29286,0,7.362-2.2086,7.362-5.88959V146.94c0-3.51739-2.69939-5.64419-7.32272-5.64419H73.48619v11.61558h8.79512ZM70.25347,138.30852H82.566c3.5174,0,6.34113,1.0634,8.14072,2.863a7.90113,7.90113,0,0,1,2.21187,5.64746v0.0818c0,4.74439-3.27527,7.52559-7.77426,8.34358L93.93942,166.945H89.9705l-8.30432-11.128h-8.18v11.128H70.25347V138.30852Z" transform="translate(-10 -10)"/><path class="e" d="M112.225,159.17206v-1.96319a21.68414,21.68414,0,0,0-6.17753-.8998c-3.92639,0-6.17753,1.7178-6.17753,4.25359v0.0818c0,2.66013,2.45727,4.21433,5.32027,4.21433,3.88386,0,7.03478-2.33293,7.03478-5.68673m-15.54524,1.636v-0.0818c0-4.54153,3.681-6.91372,9.04051-6.91372a22.20941,22.20941,0,0,1,6.46219.8998v-0.6544c0-3.76279-2.29039-5.726-6.25605-5.726a14.71058,14.71058,0,0,0-6.42292,1.51166l-0.94233-2.57506a17.30739,17.30739,0,0,1,7.69246-1.7996c2.98406,0,5.317.818,6.83193,2.32966a8.36641,8.36641,0,0,1,2.20859,6.22006V166.943h-3.11167v-3.14766a9.26849,9.26849,0,0,1-7.60738,3.59919c-3.96893,0-7.89532-2.25113-7.89532-6.58652" transform="translate(-10 -10)"/><path class="e" d="M138.03706,156.3889v-0.0818a7.85814,7.85814,0,0,0-7.64992-8.14072c-4.09,0-7.44378,3.02987-7.44378,8.14072v0.0818c0,4.99306,3.43559,8.18325,7.44378,8.18325a7.89687,7.89687,0,0,0,7.64992-8.18325m-18.32643.04253v-0.0818c0-6.91372,5.03232-11.00371,10.10391-11.00371a9.54511,9.54511,0,0,1,8.10146,4.499v-12.764h3.14765v29.86348H137.916v-4.25359c-1.72107,2.5358-4.21433,4.70513-8.10146,4.70513-5.07159,0-10.10391-4.01147-10.10391-10.96445" transform="translate(-10 -10)"/><path class="e" d="M147.36388,145.79648h3.15093v21.15017h-3.15093V145.79648Zm-0.20613-8.10146h3.59919v3.47813h-3.59919V137.695Z" transform="translate(-10 -10)"/><path class="e" d="M174.31987,156.472v-0.0818a8.00259,8.00259,0,0,0-7.85279-8.26506c-4.58407,0-7.73172,3.72353-7.73172,8.18326v0.0818a7.93359,7.93359,0,0,0,7.81352,8.22252c4.58078,0,7.771-3.681,7.771-8.14072m-18.81723,0v-0.0818a11.02507,11.02507,0,0,1,22.05-.0818v0.0818a10.9836,10.9836,0,0,1-11.08552,11.04625A10.837,10.837,0,0,1,155.50264,156.472" transform="translate(-10 -10)"/><rect class="e" x="172.50182" y="127.08316" width="3.15093" height="29.86348"/><path class="e" d="M209.45977,156.472v-0.0818a8.00259,8.00259,0,0,0-7.85279-8.26506c-4.58407,0-7.73172,3.72353-7.73172,8.18326v0.0818a7.93359,7.93359,0,0,0,7.81352,8.22252c4.58078,0,7.771-3.681,7.771-8.14072m-18.81723,0v-0.0818a11.02507,11.02507,0,0,1,22.05-.0818v0.0818A10.9836,10.9836,0,0,1,201.607,167.43646,10.837,10.837,0,0,1,190.64254,156.472" transform="translate(-10 -10)"/><path class="e" d="M234.45321,155.36575v-0.07853c0-4.33866-3.7628-7.15912-7.771-7.15912a6.99276,6.99276,0,0,0-7.32271,7.11658v0.0818a7.15859,7.15859,0,0,0,7.32271,7.19839c4.00819,0,7.771-2.90226,7.771-7.15912m-17.34482,15.26058,1.43313-2.454a13.51449,13.51449,0,0,0,8.1407,2.6994c4.6626,0,7.68918-2.57833,7.68918-7.52559v-2.49653a10.02428,10.02428,0,0,1-8.3043,4.45973,9.78027,9.78027,0,0,1-9.94032-9.90105v-0.0818a10.01243,10.01243,0,0,1,18.20538-5.726v-3.80533h3.15092v17.46917a10.18309,10.18309,0,0,1-2.70268,7.48305c-1.88139,1.88467-4.70511,2.82373-8.05891,2.82373a16.58658,16.58658,0,0,1-9.6131-2.94479" transform="translate(-10 -10)"/><path class="e" d="M242.26675,172.54862l1.06339-2.49653a6.60453,6.60453,0,0,0,3.31453.77874c1.88139,0,3.06585-.9816,4.33538-3.96893l-9.6131-21.06509h3.47812l7.68918,17.6295,6.79267-17.6295h3.3538l-8.87693,21.84383c-1.80285,4.37793-3.84785,5.97139-7.038,5.97139a9.58948,9.58948,0,0,1-4.499-1.0634" transform="translate(-10 -10)"/><rect class="e" x="60.23972" y="88.74848" width="3.23273" height="28.63649"/><path class="e" d="M80.3034,106.23709h3.15093v3.681a8.0094,8.0094,0,0,1,7.24092-4.13252c5.11412,0,8.09819,3.43886,8.09819,8.47119v13.13051H95.64577v-12.355c0-3.92639-2.12679-6.38039-5.85032-6.38039-3.64173,0-6.34112,2.65686-6.34112,6.62579v12.10965H80.3034V106.23709Z" transform="translate(-10 -10)"/><path class="e" d="M105.58413,121.78233v-12.764h-2.9448v-2.7812h2.9448V99.85671h3.15093v6.38039h6.70758v2.7812h-6.70758v12.355c0,2.57833,1.42986,3.5174,3.55666,3.5174a6.5945,6.5945,0,0,0,3.06913-.7362v2.6994a7.91392,7.91392,0,0,1-3.80206.8998c-3.39633,0-5.97465-1.67526-5.97465-5.97139" transform="translate(-10 -10)"/><path class="e" d="M135.4885,115.56555c-0.36973-3.84787-2.57833-7.11986-6.75012-7.11986-3.64173,0-6.42291,3.0266-6.87445,7.11986H135.4885Zm-6.17751,9.57058a8.74176,8.74176,0,0,0,6.66832-2.98732l1.96319,1.76033a10.91912,10.91912,0,0,1-8.71331,3.96893c-5.80779,0-10.55546-4.45973-10.55546-11.04625,0-6.135,4.29613-11.04625,10.14646-11.04625,6.25932,0,9.85852,4.99307,9.85852,11.20985,0,0.28793,0,.61513-0.03927,1.10593H121.86393a7.39336,7.39336,0,0,0,7.44706,7.03478" transform="translate(-10 -10)"/><path class="e" d="M143.177,106.23709H146.328v5.52313c1.5542-3.5174,4.62333-6.05646,8.63152-5.89286v3.39633h-0.2454c-4.62332,0-8.38612,3.31453-8.38612,9.69491v8.42866H143.177V106.23709Z" transform="translate(-10 -10)"/><polygon class="e" points="146.636 96.237 150.115 96.237 157.231 113.788 164.39 96.237 167.787 96.237 158.582 117.551 155.801 117.551 146.636 96.237"/><path class="e" d="M197.21695,115.56555c-0.36646-3.84787-2.57832-7.11986-6.75012-7.11986-3.64173,0-6.42291,3.0266-6.87118,7.11986h13.6213Zm-6.17751,9.57058a8.74176,8.74176,0,0,0,6.66832-2.98732l1.96319,1.76033a10.91912,10.91912,0,0,1-8.71331,3.96893c-5.80779,0-10.55546-4.45973-10.55546-11.04625,0-6.135,4.29613-11.04625,10.14646-11.04625,6.25932,0,9.85852,4.99307,9.85852,11.20985,0,0.28793,0,.61513-0.03927,1.10593H183.59564a7.38841,7.38841,0,0,0,7.44379,7.03478" transform="translate(-10 -10)"/><path class="e" d="M204.90712,106.23709H208.058v3.681a8.00784,8.00784,0,0,1,7.23766-4.13252c5.11411,0,8.10145,3.43886,8.10145,8.47119v13.13051h-3.15092v-12.355c0-3.92639-2.1268-6.38039-5.84706-6.38039-3.64173,0-6.34112,2.65686-6.34112,6.62579v12.10965h-3.15092V106.23709Z" transform="translate(-10 -10)"/><path class="e" d="M230.18752,121.78233v-12.764h-2.9448v-2.7812h2.9448V99.85671h3.15092v6.38039H240.046v2.7812h-6.70757v12.355c0,2.57833,1.42985,3.5174,3.55665,3.5174a6.59457,6.59457,0,0,0,3.06914-.7362v2.6994a7.914,7.914,0,0,1-3.80206.8998c-3.39634,0-5.97465-1.67526-5.97465-5.97139" transform="translate(-10 -10)"/><path class="e" d="M244.87255,106.23807h3.14765v21.15017h-3.14765V106.23807Zm-0.20285-8.10146h3.59919v3.47813H244.6697V98.13662Z" transform="translate(-10 -10)"/><path class="e" d="M271.82985,116.91394v-0.0818a8.00259,8.00259,0,0,0-7.85279-8.26505c-4.58407,0-7.73172,3.72353-7.73172,8.18325v0.0818a7.93359,7.93359,0,0,0,7.81352,8.22252c4.58077,0,7.771-3.681,7.771-8.14072m-18.81723,0v-0.0818a11.02507,11.02507,0,0,1,22.05-.0818v0.0818a10.98361,10.98361,0,0,1-11.08552,11.04625,10.837,10.837,0,0,1-10.96444-10.96446" transform="translate(-10 -10)"/><path class="e" d="M279.72453,106.23709h3.15092v3.681a8.00938,8.00938,0,0,1,7.24091-4.13252c5.11414,0,8.09818,3.43886,8.09818,8.47119v13.13051h-3.14765v-12.355c0-3.92639-2.1268-6.38039-5.85033-6.38039-3.64173,0-6.34111,2.65686-6.34111,6.62579v12.10965h-3.15092V106.23709Z" transform="translate(-10 -10)"/><path class="e" d="M317.85142,119.614V117.6508a21.68435,21.68435,0,0,0-6.17753-.8998c-3.92641,0-6.17753,1.7178-6.17753,4.2536v0.0818c0,2.66013,2.45727,4.21433,5.32026,4.21433,3.88384,0,7.03479-2.33293,7.03479-5.68673m-15.54524,1.636v-0.0818c0-4.54152,3.681-6.91372,9.04049-6.91372a22.20947,22.20947,0,0,1,6.46221.8998v-0.6544c0-3.76279-2.29041-5.726-6.25606-5.726a14.71051,14.71051,0,0,0-6.42291,1.51166l-0.94234-2.57505a17.30736,17.30736,0,0,1,7.69245-1.7996c2.98407,0,5.317.818,6.83194,2.32966a8.36644,8.36644,0,0,1,2.20858,6.22006V127.385h-3.11165v-3.14766a9.26854,9.26854,0,0,1-7.6074,3.59919c-3.96892,0-7.8953-2.25113-7.8953-6.58652" transform="translate(-10 -10)"/><rect class="e" x="316.84908" y="87.52149" width="3.15092" height="29.86349"/><path class="e" d="M67.51841,86.845l1.21718-1.43967a8.25974,8.25974,0,0,0,5.955,2.45727c2.33293,0,3.87077-1.24008,3.87077-2.95134V84.85887c0-1.61309-.87035-2.52925-4.51535-3.29817-3.99511-.87035-5.83069-2.15952-5.83069-5.0127V76.49566c0-2.72884,2.40492-4.73785,5.70635-4.73785a9.07634,9.07634,0,0,1,6.10554,2.13334l-1.14193,1.51494a7.63193,7.63193,0,0,0-5.01269-1.88794c-2.25768,0-3.69736,1.24336-3.69736,2.80409V76.3746c0,1.636.89326,2.55542,4.71494,3.37342,3.87077,0.84417,5.65728,2.25768,5.65728,4.91453v0.04909c0,2.97751-2.48344,4.91453-5.93212,4.91453a10.16122,10.16122,0,0,1-7.09695-2.7812" transform="translate(-10 -10)"/><path class="e" d="M94.34483,83.02393V82.97485a4.85617,4.85617,0,0,0-4.76729-5.01269,4.73477,4.73477,0,0,0-4.68877,4.96361v0.04908a4.81149,4.81149,0,0,0,4.73785,4.98652,4.73415,4.73415,0,0,0,4.71821-4.93745m-11.416,0V82.97485a6.688,6.688,0,0,1,13.37591-.04908v0.04908a6.66308,6.66308,0,0,1-6.72722,6.701,6.57378,6.57378,0,0,1-6.64869-6.652" transform="translate(-10 -10)"/><path class="e" d="M98.46165,83.02393V82.97485a6.6824,6.6824,0,0,1,11.71374-4.41719l-1.26626,1.33825a5.17994,5.17994,0,0,0-3.89367-1.93375,4.73561,4.73561,0,0,0-4.59388,4.96361v0.04908a4.79342,4.79342,0,0,0,4.71494,4.98652,5.2807,5.2807,0,0,0,3.91985-1.91084l1.21718,1.14192a6.63568,6.63568,0,0,1-11.81189-4.16853" transform="translate(-10 -10)"/><path class="e" d="M113.10284,89.3775h1.91085V76.548h-1.91085V89.3775ZM112.9785,73.74391h2.18242V71.63675H112.9785v2.10717Z" transform="translate(-10 -10)"/><path class="e" d="M128.36538,82.204c-0.22577-2.33294-1.564-4.31576-4.09654-4.31576-2.20859,0-3.89694,1.83559-4.16851,4.31576h8.26506Zm-3.7497,5.80778a5.29986,5.29986,0,0,0,4.04417-1.81267l1.191,1.06667a6.61838,6.61838,0,0,1-5.28427,2.40819,6.38514,6.38514,0,0,1-6.40328-6.701c0-3.72026,2.60777-6.69777,6.15461-6.69777,3.79879,0,5.98121,3.02659,5.98121,6.7992,0,0.17342,0,.373-0.02619.67076H120.10032a4.48209,4.48209,0,0,0,4.51535,4.26667" transform="translate(-10 -10)"/><path class="e" d="M133.82176,85.97691V78.23538h-1.78651V76.547h1.78651V72.67626h1.91084V76.547H139.803v1.68836H135.7326v7.49287a1.897,1.897,0,0,0,2.15952,2.13333,4.00515,4.00515,0,0,0,1.86177-.445v1.63927a4.8195,4.8195,0,0,1-2.31.54315c-2.05809,0-3.62209-1.01759-3.62209-3.6221" transform="translate(-10 -10)"/><path class="e" d="M141.93467,92.77644l0.64458-1.51493a4.001,4.001,0,0,0,2.009.47117c1.14521,0,1.865-.5955,2.63069-2.40492l-5.8307-12.7804h2.11044l4.66587,10.69614L152.284,76.54736h2.03519l-5.3857,13.25157c-1.09286,2.65359-2.33294,3.62209-4.26668,3.62209a5.84345,5.84345,0,0,1-2.73211-.64458" transform="translate(-10 -10)"/><path class="e" d="M174.418,83.02393V82.97485a4.85618,4.85618,0,0,0-4.7673-5.01269,4.73477,4.73477,0,0,0-4.68876,4.96361v0.04908a4.81209,4.81209,0,0,0,4.74111,4.98652,4.7335,4.7335,0,0,0,4.71495-4.93745m-11.416,0V82.97485a6.688,6.688,0,0,1,13.3759-.04908v0.04908a6.66308,6.66308,0,0,1-6.72722,6.701,6.57377,6.57377,0,0,1-6.64868-6.652" transform="translate(-10 -10)"/><path class="e" d="M180.0488,78.23439h-1.76034V76.57222h1.76034v-1.119a4.52321,4.52321,0,0,1,1.11575-3.29817,3.78332,3.78332,0,0,1,2.755-.99469,5.83,5.83,0,0,1,2.11044.32392v1.66218a6.48114,6.48114,0,0,0-1.86177-.32394c-1.48876,0-2.2315.89653-2.2315,2.73212v1.04048h4.06709v1.63927h-4.04418V89.37554H180.0488V78.23439Z" transform="translate(-10 -10)"/><polygon class="c" points="61.174 174.567 60.955 175.398 64.636 175.398 61.75 187.187 62.653 187.187 65.536 175.398 69.213 175.398 69.433 174.567 61.174 174.567"/><path class="c" d="M81.93481,184.17205h0.84744l-1.31534,5.33662a3.7399,3.7399,0,0,1,3.04623-1.80287,2.41271,2.41271,0,0,1,2.5587,2.59469,7.13142,7.13142,0,0,1-.19632,1.42659l-1.299,5.461H84.72909l1.335-5.53294a5.57977,5.57977,0,0,0,.16033-1.28262,1.7778,1.7778,0,0,0-1.9632-1.91084c-1.42659,0-2.86626,1.35133-3.3178,3.13784L79.59206,197.188H78.74462Z" transform="translate(-10 -10)"/><path class="c" d="M90.44461,192.10533h5.62456a3.88129,3.88129,0,0,0,.12434-1.083c0-1.407-.66749-2.54234-2.12679-2.54234a3.20293,3.20293,0,0,0-2.23477.99141,5.76261,5.76261,0,0,0-1.38732,2.634m-0.1636.75583a5.47675,5.47675,0,0,0-.036.7591c0,1.85522,1.083,2.95461,2.63069,2.95461a3.93973,3.93973,0,0,0,2.57833-.97505l0.4319,0.63149a4.66327,4.66327,0,0,1-3.0266,1.13865,3.40258,3.40258,0,0,1-3.49776-3.717,6.82425,6.82425,0,0,1,1.83885-4.6495,4.0957,4.0957,0,0,1,2.90226-1.299c1.89449,0,2.93825,1.407,2.93825,3.30144a6.33482,6.33482,0,0,1-.28794,1.85522H90.281Z" transform="translate(-10 -10)"/><polygon class="c" points="101.533 177.904 96.612 186.107 95.676 177.904 94.776 177.904 96.016 187.258 96.739 187.258 102.508 177.904 101.533 177.904"/><path class="c" d="M115.354,187.90311l-2.27076,9.28592h0.84745l2.2544-9.28592H115.354Zm0.77547-3.49776-0.30757,1.227h1.011l0.30757-1.227h-1.011Z" transform="translate(-10 -10)"/><path class="c" d="M117.13884,195.72742l0.64785-.5955a3.63413,3.63413,0,0,0,2.75829,1.44295,1.97168,1.97168,0,0,0,2.0908-1.76688c0-.64785-0.35991-1.191-1.71125-1.94684-1.53129-.84745-2.16279-1.4953-2.16279-2.59469a2.6828,2.6828,0,0,1,2.93825-2.526,4.15771,4.15771,0,0,1,2.97424,1.371l-0.61186.6315a3.34894,3.34894,0,0,0-2.418-1.24336,1.82361,1.82361,0,0,0-1.99919,1.69162c0,0.65113.32392,1.119,1.74725,1.93048,1.55092,0.88344,2.12679,1.60328,2.12679,2.61432a2.83413,2.83413,0,0,1-3.04623,2.61432,4.354,4.354,0,0,1-3.33415-1.62291" transform="translate(-10 -10)"/><path class="c" d="M128.18737,187.90311l-2.27076,9.28592h0.85073l2.25113-9.28592h-0.83109Zm0.77547-3.49776-0.30757,1.227h1.011l0.30757-1.227h-1.011Z" transform="translate(-10 -10)"/><path class="c" d="M136.68016,195.52914a5.90735,5.90735,0,0,0,1.5313-3.96566c0-1.96647-1.04377-3.06586-2.5947-3.06586a3.37267,3.37267,0,0,0-2.36238,1.06667,5.848,5.848,0,0,0-1.53129,3.96566c0,1.9632,1.04377,3.06259,2.59469,3.06259a3.38858,3.38858,0,0,0,2.36238-1.0634m2.41474-4.00165A6.45593,6.45593,0,0,1,137.328,196.033a4.33917,4.33917,0,0,1-3.08222,1.35461c-2.03846,0-3.40615-1.55092-3.40615-3.82169a6.44947,6.44947,0,0,1,1.76688-4.50881,4.33,4.33,0,0,1,3.08222-1.35133c2.03517,0,3.40615,1.53129,3.40615,3.82169" transform="translate(-10 -10)"/><path class="c" d="M143.07758,187.90409h0.83108l-0.37955,1.60328a3.73991,3.73991,0,0,1,3.04623-1.80287,2.41362,2.41362,0,0,1,2.5587,2.598,7.10346,7.10346,0,0,1-.19632,1.42332l-1.299,5.461h-0.84744l1.335-5.53294a5.55553,5.55553,0,0,0,.16033-1.27935,1.77781,1.77781,0,0,0-1.9632-1.91084c-1.42331,0-2.86626,1.35133-3.3178,3.13457l-1.35133,5.58856h-0.84744Z" transform="translate(-10 -10)"/><path class="c" d="M156.83107,195.70976a4.61693,4.61693,0,0,1,.1276-0.91943l1.47567-6.11208h-1.18773l0.18-.77546h1.191l0.70021-2.84663h0.84744l-0.70021,2.84663h2.61105l-0.18.77546h-2.63067l-1.49857,6.27241a3.08837,3.08837,0,0,0-.08835.65113,1.00638,1.00638,0,0,0,1.24336.93579,2.99307,2.99307,0,0,0,1.119-.25194l-0.18.81145a2.74912,2.74912,0,0,1-1.13538.216,1.63066,1.63066,0,0,1-1.89448-1.60328" transform="translate(-10 -10)"/><path class="c" d="M168.78333,195.52914a5.90735,5.90735,0,0,0,1.5313-3.96566c0-1.96647-1.047-3.06586-2.5947-3.06586a3.37267,3.37267,0,0,0-2.36238,1.06667,5.848,5.848,0,0,0-1.53129,3.96566c0,1.9632,1.04377,3.06259,2.59469,3.06259a3.38858,3.38858,0,0,0,2.36238-1.0634m2.41474-4.00165a6.45593,6.45593,0,0,1-1.76688,4.50553,4.33917,4.33917,0,0,1-3.08222,1.35461c-2.03846,0-3.40615-1.55092-3.40615-3.82169a6.44947,6.44947,0,0,1,1.76688-4.50881,4.33,4.33,0,0,1,3.08222-1.35133c2.03517,0,3.40615,1.53129,3.40615,3.82169" transform="translate(-10 -10)"/><path class="c" d="M181.02125,184.17205h0.84744l-1.31534,5.33662a3.73989,3.73989,0,0,1,3.04623-1.80287,2.41271,2.41271,0,0,1,2.5587,2.59469,7.13188,7.13188,0,0,1-.19632,1.42659l-1.299,5.461h-0.84746l1.335-5.53294a5.57943,5.57943,0,0,0,.16033-1.28262,1.7778,1.7778,0,0,0-1.96319-1.91084c-1.42332,0-2.86626,1.35133-3.3178,3.13784l-1.35134,5.58856H177.831Z" transform="translate(-10 -10)"/><path class="c" d="M189.53071,192.10533h5.62455a3.88127,3.88127,0,0,0,.12434-1.083c0-1.407-.66749-2.54234-2.1268-2.54234a3.19687,3.19687,0,0,0-2.23477.99141,5.76255,5.76255,0,0,0-1.38732,2.634m-0.1636.75583a5.47676,5.47676,0,0,0-.036.7591c0,1.85522,1.07975,2.95461,2.63069,2.95461a3.93972,3.93972,0,0,0,2.57832-.97505l0.4319,0.63149a4.66993,4.66993,0,0,1-3.02659,1.13865,3.40258,3.40258,0,0,1-3.49776-3.717,6.82425,6.82425,0,0,1,1.83886-4.6495,4.09569,4.09569,0,0,1,2.90226-1.299c1.89121,0,2.93825,1.407,2.93825,3.30144a6.44558,6.44558,0,0,1-.28794,1.85522h-6.472Z" transform="translate(-10 -10)"/><path class="c" d="M203.96936,193.70893l0.26831-1.083a9.00221,9.00221,0,0,0-2.83028-.4679,2.908,2.908,0,0,0-2.0908.77546,2.61727,2.61727,0,0,0-.71984,1.83886,1.76044,1.76044,0,0,0,1.92721,1.85522,3.74408,3.74408,0,0,0,3.44541-2.91862m-6.256,1.13538a3.36185,3.36185,0,0,1,.95542-2.39837,3.919,3.919,0,0,1,2.81063-1.02741,9.76493,9.76493,0,0,1,2.9219.50389l0.072-.3043a6.1428,6.1428,0,0,0,.144-1.13538c0-1.191-.79181-1.91084-2.34275-1.91084a5.47283,5.47283,0,0,0-2.2544.4679l-0.23558-.7591a6.56483,6.56483,0,0,1,2.54234-.50389c1.98282,0,3.12148.99141,3.12148,2.57833a6.29117,6.29117,0,0,1-.19959,1.38732l-1.299,5.4446h-0.84744l0.37954-1.47894a3.91388,3.91388,0,0,1-3.13784,1.67853,2.46285,2.46285,0,0,1-2.63067-2.54234" transform="translate(-10 -10)"/><polygon class="c" points="200.619 174.173 197.429 187.189 198.276 187.189 201.45 174.173 200.619 174.173"/><rect class="b" x="124.41667" y="246.23" width="228.233" height="57.27"/><rect class="b" x="124.41667" y="246.23" width="228.233" height="57.27"/><rect class="b" x="124.41667" y="246.23" width="228.233" height="57.27"/><rect class="b" x="124.41667" y="246.23" width="228.233" height="57.27"/><rect class="b" x="124.41667" y="246.23" width="228.233" height="57.27"/><rect class="b" x="124.41667" y="246.23" width="228.233" height="57.27"/><rect class="b" x="124.41667" y="246.23" width="228.233" height="57.27"/><rect class="b" x="124.41667" y="246.23" width="228.233" height="57.27"/><rect class="b" x="124.41667" y="246.23" width="228.233" height="57.27"/><rect class="b" x="124.41667" y="246.23" width="228.233" height="57.27"/><rect class="b" x="124.41667" y="246.23" width="228.233" height="57.27"/><rect class="b" x="124.41667" y="246.23" width="228.233" height="57.27"/><path class="c" d="M64.46992,365.09146l2.38115-2.82186c3.54869,3.21,6.9527,4.81493,11.66893,4.81493,4.57155,0,7.58748-2.43049,7.58748-5.78515v-0.09866c0-3.16062-1.70366-4.95964-8.85042-6.46595-7.82751-1.70365-11.42559-4.22951-11.42559-9.82391v-0.09538c0-5.34773,4.71628-9.28782,11.18224-9.28782a17.7568,17.7568,0,0,1,11.96166,4.18347L86.739,342.67441a14.95646,14.95646,0,0,0-9.82064-3.69341c-4.42682,0-7.24542,2.43048-7.24542,5.49243v0.09868c0,3.20995,1.74973,5.009,9.2385,6.61394,7.58417,1.651,11.08353,4.42355,11.08353,9.62657V360.908c0,5.83777-4.861,9.62986-11.6196,9.62986a19.91194,19.91194,0,0,1-13.9054-5.44639" transform="translate(-10 -10)"/><rect class="c" x="86.94471" y="326.01573" width="3.84142" height="34.03667"/><path class="c" d="M123.82739,353.37315c5.10762,0,8.75171-2.62453,8.75171-7.002v-0.09866c0-4.18017-3.20663-6.70933-8.70238-6.70933H113.37533v13.81h10.45206Zm-14.29347-17.35874h14.63553c4.18016,0,7.53484,1.26623,9.67591,3.404a9.40986,9.40986,0,0,1,2.62449,6.70932v0.09868c0,5.64043-3.89075,8.94576-9.23845,9.91927l10.45537,13.90541h-4.71628l-9.86992-13.22461h-9.72524v13.22461h-3.84142V336.01441Z" transform="translate(-10 -10)"/><polygon class="e" points="135.589 326.014 157.158 326.014 157.158 328.35 137.865 328.35 137.865 342.304 155.191 342.304 155.191 344.636 137.865 344.636 137.865 360.051 135.589 360.051 135.589 326.014"/><path class="e" d="M189.16669,357.74935v-0.09866c0-5.9792-4.02559-10.74478-9.18917-10.74478-5.29506,0-9.10034,4.81492-9.10034,10.64941v0.09538c0,5.98248,4.02559,10.74808,9.18917,10.74808,5.2918,0,9.10034-4.81493,9.10034-10.64941m-20.60813,0v-0.09866c0-6.95271,4.85765-12.98123,11.50779-12.98123,6.60407,0,11.419,5.93315,11.419,12.88585v0.09538c0,6.95271-4.8577,12.98452-11.50784,12.98452-6.60733,0-11.419-5.93315-11.419-12.88586" transform="translate(-10 -10)"/><path class="e" d="M195.68464,360.42354V345.25192H197.829v14.7342c0,5.10435,2.58179,8.459,7.08754,8.459,4.37422,0,7.742-3.69342,7.742-8.85039V345.25192h2.14433v24.79819h-2.14433v-4.61759c-1.48656,2.91724-3.97957,5.203-8.04792,5.203-5.64374,0-8.926-4.28213-8.926-10.212" transform="translate(-10 -10)"/><path class="e" d="M220.098,345.2529h2.14433v4.62089c1.48656-2.91724,3.97957-5.203,8.05119-5.203,5.64374,0,8.92274,4.27884,8.92274,10.20869V370.0511h-2.14433V355.31689c0-5.10435-2.57847-8.459-7.08754-8.459-4.37422,0-7.742,3.69341-7.742,8.85038V370.0511H220.098V345.2529Z" transform="translate(-10 -10)"/><path class="e" d="M262.80057,357.7v-0.09538c0-6.37057-4.46305-10.64941-9.10034-10.64941-4.8577,0-8.75176,3.93679-8.75176,10.60008v0.09538c0,6.51528,4.06835,10.69875,8.75176,10.69875,4.63729,0,9.10034-4.32817,9.10034-10.64941m-20.17072.04933v-0.09866c0-8.07093,5.4694-12.98123,10.85-12.98123,4.463,0,7.35066,2.82186,9.18912,5.93315V334.55613h2.14438v35.49365H262.669V364.508c-1.92728,3.25929-4.76887,6.1272-9.18912,6.1272-5.38062,0-10.85-4.81493-10.85-12.88586" transform="translate(-10 -10)"/><path class="e" d="M286.33746,360.763v-2.81858a26.76579,26.76579,0,0,0-7.56776-1.11822c-4.72612,0-7.35066,2.33182-7.35066,5.78515V362.71c0,3.598,3.062,5.68648,6.47585,5.68648,4.54851,0,8.44257-3.11129,8.44257-7.63351m-17.19428,2.09173V362.756c0-5.15368,3.98284-8.07093,9.75811-8.07093a24.252,24.252,0,0,1,7.39342,1.07218V354.6851c0-5.009-2.75608-7.58417-7.35066-7.58417a13.79852,13.79852,0,0,0-7.002,1.99306l-0.786-2.09172a16.51834,16.51834,0,0,1,7.9196-2.13778,9.078,9.078,0,0,1,7.04153,2.72319,10.01988,10.01988,0,0,1,2.27591,7.002v15.46105h-2.09831v-4.13413a9.88789,9.88789,0,0,1-8.5314,4.71626c-4.15713,0-8.62013-2.62453-8.62013-7.77822" transform="translate(-10 -10)"/><path class="e" d="M295.30662,363.6802V347.43968h-3.23629v-2.18711h3.23629v-7.92621H297.451v7.92621h7.83083v2.18711H297.451v15.99714c0,3.552,1.88126,4.81493,4.463,4.81493a6.86352,6.86352,0,0,0,3.279-.87485v2.23644a7.51352,7.51352,0,0,1-3.63094.87485c-3.4566,0-6.25544-2.09174-6.25544-6.808" transform="translate(-10 -10)"/><path class="e" d="M309.96253,370.04912h2.14433V345.25422h-2.14433v24.79491Zm-0.26312-31.26086H312.37V335.529h-2.67056v3.25929Z" transform="translate(-10 -10)"/><path class="e" d="M337.6592,357.74935v-0.09866c0-5.9792-4.02559-10.74478-9.18917-10.74478-5.29506,0-9.10034,4.81492-9.10034,10.64941v0.09538c0,5.98248,4.02559,10.74808,9.18917,10.74808,5.2918,0,9.10034-4.81493,9.10034-10.64941m-20.60813,0v-0.09866c0-6.95271,4.85765-12.98123,11.50779-12.98123,6.60407,0,11.419,5.93315,11.419,12.88585v0.09538c0,6.95271-4.8577,12.98452-11.50784,12.98452-6.60733,0-11.419-5.93315-11.419-12.88586" transform="translate(-10 -10)"/><path class="e" d="M344.61456,345.2529h2.14433v4.62089c1.48656-2.91724,3.97957-5.203,8.05119-5.203,5.64374,0,8.92274,4.27884,8.92274,10.20869V370.0511h-2.14107V355.31689c0-5.10435-2.58174-8.459-7.09081-8.459-4.37422,0-7.742,3.69341-7.742,8.85038V370.0511h-2.14433V345.2529Z" transform="translate(-10 -10)"/><path class="c" d="M10.50687,368.21985a0.55985,0.55985,0,0,1-.12827-0.00657,0.46717,0.46717,0,0,1-.33877-0.45058c-0.694-17.98362,7.69929-35.7469,23.62737-50.01079,17.07256-15.29,40.69993-24.864,68.32329-27.68585,33.767-3.45,72.16473,3.7033,111.04265,20.68381a0.4907,0.4907,0,0,1-.03944.95049h-0.01646a0.3882,0.3882,0,0,1-.19075-0.02961c-25.71911-10.9191-61.82449-15.64523-94.22986-12.33332-30.35971,3.10142-84.725,16.14185-107.70114,68.616a0.44736,0.44736,0,0,1-.34861.2664" transform="translate(-10 -10)"/><path class="d" d="M126.09347,264.2312a0.13229,0.13229,0,0,0-.04938.00987c-21.65071,5.98577-40.97622,14.78682-55.888,25.45268C55.81983,299.9485,45.73282,311.7556,40.98693,323.839c-4.95305,12.603-3.94665,25.14682,2.9107,36.2764a0.2726,0.2726,0,0,0,.31245.10854,0.262,0.262,0,0,0,.16445-0.28942c-4.42687-25.11722,10.96841-46.42591,24.66-59.87745,18.30923-17.98033,41.53207-30.03739,57.16416-35.32262a0.26259,0.26259,0,0,0,.1644-0.32232,0.25925,0.25925,0,0,0-.26964-0.18089" transform="translate(-10 -10)"/><path class="c" d="M71.39331,390.89968l-0.73013-5.45626-3.43031,5.45626h4.16044Zm-0.90769-6.28178h0.67749l1.355,9.54106H71.84061l-0.35189-2.65084h-4.634L65.18721,394.159H64.45376Z" transform="translate(-10 -10)"/><path class="c" d="M78.23781,392.88781a4.46857,4.46857,0,0,0,1.19389-3.0192,2.03862,2.03862,0,0,0-1.93717-2.2463,2.333,2.333,0,0,0-1.65433.717,4.65508,4.65508,0,0,0-1.16754,3.154c0,1.355.66434,2.23315,1.74968,2.23315a2.59226,2.59226,0,0,0,1.81547-.83866m0.54269-.01316a3.17016,3.17016,0,0,1-2.46666,1.434c-1.355,0-2.30552-1.06889-2.30552-2.74622a5.22608,5.22608,0,0,1,1.37144-3.60133,2.95453,2.95453,0,0,1,2.08516-.92088,2.33556,2.33556,0,0,1,2.27923,1.81546l1.09517-4.46631h0.638l-2.39761,9.77128h-0.6249Z" transform="translate(-10 -10)"/><polygon class="c" points="72.142 377.189 72.819 377.189 73.523 383.346 77.223 377.189 77.956 377.189 73.618 384.214 73.076 384.214 72.142 377.189"/><path class="c" d="M92.212,391.54923l0.2039-.81235a6.69947,6.69947,0,0,0-2.12792-.35191,2.18428,2.18428,0,0,0-1.57208.58213,1.96416,1.96416,0,0,0-.54264,1.378,1.32293,1.32293,0,0,0,1.45038,1.39449,2.81671,2.81671,0,0,0,2.58836-2.1904m-4.70308.85182a2.522,2.522,0,0,1,.71693-1.799,2.94185,2.94185,0,0,1,2.11477-.77289,7.39306,7.39306,0,0,1,2.197.37822l0.05264-.23022a4.57768,4.57768,0,0,0,.1085-0.85182c0-.89458-0.59529-1.434-1.75952-1.434a4.13467,4.13467,0,0,0-1.69709.35191l-0.17429-.569a4.89519,4.89519,0,0,1,1.91082-.37822c1.48987,0,2.345.74329,2.345,1.93386a4.77608,4.77608,0,0,1-.148,1.04258l-0.97679,4.08808h-0.638l0.2861-1.10835a2.94973,2.94973,0,0,1-2.35812,1.25635,1.85057,1.85057,0,0,1-1.97988-1.90756" transform="translate(-10 -10)"/><path class="c" d="M95.95211,387.18915H96.577l-0.2861,1.20374a2.81893,2.81893,0,0,1,2.29232-1.35173,1.81215,1.81215,0,0,1,1.924,1.947,5.24605,5.24605,0,0,1-.15131,1.07218l-0.97348,4.098h-0.638l1.00309-4.15386a4.0605,4.0605,0,0,0,.1217-0.96035,1.33481,1.33481,0,0,0-1.47673-1.434,2.91212,2.91212,0,0,0-2.493,2.35485l-1.01955,4.19333H94.24514Z" transform="translate(-10 -10)"/><path class="c" d="M101.75307,391.52061a5.05907,5.05907,0,0,1,1.36813-3.46648,3.27528,3.27528,0,0,1,2.27923-.99982,2.45516,2.45516,0,0,1,2.19366,1.25965l-0.5295.36507a1.88144,1.88144,0,0,0-1.70692-1.04258,2.53173,2.53173,0,0,0-1.74642.7992,4.52721,4.52721,0,0,0-1.18069,3.0192,1.971,1.971,0,0,0,1.91082,2.2463,2.5134,2.5134,0,0,0,1.73653-.74657l0.39139,0.44729a3.16141,3.16141,0,0,1-2.16736.89458,2.54314,2.54314,0,0,1-2.54887-2.77583" transform="translate(-10 -10)"/><path class="c" d="M109.60292,387.18751l-1.71023,6.97244h0.638l1.69377-6.97244h-0.62158Zm0.57888-2.62453-0.23025.92089h0.75974l0.2302-.92089H110.1818Z" transform="translate(-10 -10)"/><path class="c" d="M112.48667,387.18915h0.62485l-0.2861,1.20374a2.81425,2.81425,0,0,1,2.29232-1.35173,1.81215,1.81215,0,0,1,1.924,1.947,5.246,5.246,0,0,1-.15131,1.07218l-0.97348,4.098h-0.638l1.00309-4.15386a4.0605,4.0605,0,0,0,.1217-0.96035,1.33481,1.33481,0,0,0-1.47673-1.434,2.91212,2.91212,0,0,0-2.493,2.35485l-1.01955,4.19333h-0.63478Z" transform="translate(-10 -10)"/><path class="c" d="M122.80027,392.27936a3.6916,3.6916,0,0,0,1.02943-2.53244,1.98341,1.98341,0,0,0-1.96347-2.11147,2.46372,2.46372,0,0,0-1.73653.75974,3.97379,3.97379,0,0,0-1.04258,2.70675,1.82188,1.82188,0,0,0,1.82862,2.00293,2.74006,2.74006,0,0,0,1.88452-.82551m-5.16352,2.95013,0.39134-.49991a3.87811,3.87811,0,0,0,2.41407.89129,2.32209,2.32209,0,0,0,1.76283-.64791,3.298,3.298,0,0,0,.79919-1.5984l0.25654-1.02942A3.21844,3.21844,0,0,1,120.794,393.687a2.37017,2.37017,0,0,1-2.37126-2.57191,4.52436,4.52436,0,0,1,1.23333-3.10142,3.15937,3.15937,0,0,1,2.21012-.97351,2.27359,2.27359,0,0,1,2.23642,1.75955l0.40454-1.61155h0.6249l-1.51948,6.29493a3.74911,3.74911,0,0,1-.94718,1.88124,2.96247,2.96247,0,0,1-2.26276.85511,4.55045,4.55045,0,0,1-2.76591-.99" transform="translate(-10 -10)"/><path class="c" d="M130.60971,387.18751l-1.71023,6.97244h0.638l1.69377-6.97244h-0.62158Zm0.58214-2.62453-0.23025.92089H131.718l0.23025-.92089h-0.75643Z" transform="translate(-10 -10)"/><path class="c" d="M133.49346,387.18915h0.62485l-0.2861,1.20374a2.81425,2.81425,0,0,1,2.29232-1.35173,1.81215,1.81215,0,0,1,1.924,1.947,5.24605,5.24605,0,0,1-.15131,1.07218l-0.97348,4.098h-0.638l1.00309-4.15386a4.0605,4.0605,0,0,0,.1217-0.96035,1.33481,1.33481,0,0,0-1.47673-1.434,2.91212,2.91212,0,0,0-2.493,2.35485l-1.01955,4.19333h-0.63478Z" transform="translate(-10 -10)"/><path class="c" d="M139.63347,393.0506a3.39788,3.39788,0,0,1,.09535-0.69066l1.11163-4.588h-0.89459l0.13485-.58213h0.89459l0.5295-2.13777h0.63478l-0.52623,2.13777h1.96347l-0.13485.58213h-1.97988l-1.12483,4.70969a2.26266,2.26266,0,0,0-.06579.48675,0.75712,0.75712,0,0,0,.93408.70382,2.34564,2.34564,0,0,0,.84194-0.18746l-0.13816.60844a2.06577,2.06577,0,0,1-.85178.16115,1.2253,1.2253,0,0,1-1.42408-1.20374" transform="translate(-10 -10)"/><path class="c" d="M144.5526,390.34254h4.22954a2.79545,2.79545,0,0,0,.09535-0.81235,1.64411,1.64411,0,0,0-1.59837-1.90756,2.42,2.42,0,0,0-1.68394.74329,4.37951,4.37951,0,0,0-1.04258,1.97662m-0.12165.569a4.20963,4.20963,0,0,0-.02635.569,1.97108,1.97108,0,0,0,1.97661,2.22,2.986,2.986,0,0,0,1.94048-.73013l0.3256,0.4736a3.53154,3.53154,0,0,1-2.27923.85182,2.55566,2.55566,0,0,1-2.62781-2.789,5.13559,5.13559,0,0,1,1.38133-3.4928,3.085,3.085,0,0,1,2.18382-.97351,2.20434,2.20434,0,0,1,2.21012,2.47653,4.82437,4.82437,0,0,1-.217,1.39449H144.431Z" transform="translate(-10 -10)"/><path class="c" d="M151.95329,387.18915h0.62485l-0.4078,1.651a3.43176,3.43176,0,0,1,2.99616-1.7464l-0.1776.67751h-0.05259a3.4634,3.4634,0,0,0-3.21326,2.91066l-0.84194,3.47636h-0.63478Z" transform="translate(-10 -10)"/><polygon class="c" points="145.789 377.189 146.467 377.189 147.17 383.346 150.87 377.189 151.604 377.189 147.266 384.214 146.723 384.214 145.789 377.189"/><path class="c" d="M162.36159,390.34254h4.22954a2.79545,2.79545,0,0,0,.09535-0.81235,1.64411,1.64411,0,0,0-1.59837-1.90756,2.42,2.42,0,0,0-1.68394.74329,4.37951,4.37951,0,0,0-1.04258,1.97662m-0.12165.569a4.20963,4.20963,0,0,0-.02635.569,1.97108,1.97108,0,0,0,1.97661,2.22,2.986,2.986,0,0,0,1.94048-.73013l0.3256,0.4736a3.53154,3.53154,0,0,1-2.27923.85182,2.55566,2.55566,0,0,1-2.62781-2.789,5.13559,5.13559,0,0,1,1.38133-3.4928,3.085,3.085,0,0,1,2.18382-.97351,2.20434,2.20434,0,0,1,2.21012,2.47653,4.82437,4.82437,0,0,1-.217,1.39449h-4.86754Z" transform="translate(-10 -10)"/><path class="c" d="M169.76229,387.18915h0.62485l-0.2861,1.20374a2.81425,2.81425,0,0,1,2.29232-1.35173,1.81215,1.81215,0,0,1,1.924,1.947,5.246,5.246,0,0,1-.15131,1.07218l-0.97348,4.098h-0.638l1.00309-4.15386a4.0605,4.0605,0,0,0,.1217-0.96035,1.33481,1.33481,0,0,0-1.47673-1.434,2.91212,2.91212,0,0,0-2.493,2.35485l-1.01955,4.19333h-0.63478Z" transform="translate(-10 -10)"/><path class="c" d="M175.9023,393.0506a3.39788,3.39788,0,0,1,.09535-0.69066l1.11163-4.588H176.2147l0.13485-.58213h0.89459l0.5295-2.13777h0.63478l-0.52623,2.13777h1.96347l-0.13485.58213h-1.97988l-1.12483,4.70969a2.26266,2.26266,0,0,0-.06579.48675,0.75712,0.75712,0,0,0,.93408.70382,2.34564,2.34564,0,0,0,.84194-0.18746l-0.13816.60844a2.07588,2.07588,0,0,1-.85178.16115,1.2253,1.2253,0,0,1-1.42408-1.20374" transform="translate(-10 -10)"/><path class="c" d="M181.62232,387.18751l-1.71023,6.97244h0.638l1.697-6.97244h-0.62485Zm0.58214-2.62453-0.23025.92089h0.75643l0.23025-.92089h-0.75643Z" transform="translate(-10 -10)"/><path class="c" d="M187.53113,392.9128a4.41566,4.41566,0,0,0,1.15108-2.97644c0-1.47342-.786-2.29894-1.95032-2.29894a2.53932,2.53932,0,0,0-1.776.79591,4.41132,4.41132,0,0,0-1.15113,2.97973c0,1.47342.786,2.29893,1.95032,2.29893a2.53549,2.53549,0,0,0,1.776-.7992M189.3466,389.91a4.83855,4.83855,0,0,1-1.32873,3.38427,3.26721,3.26721,0,0,1-2.31867,1.01627,2.58828,2.58828,0,0,1-2.55875-2.8712,4.83854,4.83854,0,0,1,1.32873-3.38426,3.25632,3.25632,0,0,1,2.31536-1.013A2.57915,2.57915,0,0,1,189.3466,389.91" transform="translate(-10 -10)"/><path class="c" d="M191.86722,387.18915h0.62158l-0.28284,1.20374a2.81425,2.81425,0,0,1,2.29232-1.35173,1.81215,1.81215,0,0,1,1.924,1.947,5.44756,5.44756,0,0,1-.148,1.07218l-0.97679,4.098h-0.638l1.00309-4.15386a4.0605,4.0605,0,0,0,.1217-0.96035,1.33481,1.33481,0,0,0-1.47673-1.434,2.91212,2.91212,0,0,0-2.493,2.35485l-1.01955,4.19333h-0.63478Z" transform="translate(-10 -10)"/><path class="c" d="M202.046,391.54923l0.2039-.81235a6.71544,6.71544,0,0,0-2.12792-.35191,2.18428,2.18428,0,0,0-1.57208.58213,1.94979,1.94979,0,0,0-.54264,1.378,1.32293,1.32293,0,0,0,1.45038,1.39449,2.81671,2.81671,0,0,0,2.58836-2.1904m-4.70308.85182a2.522,2.522,0,0,1,.71693-1.799,2.94185,2.94185,0,0,1,2.11477-.77289,7.39306,7.39306,0,0,1,2.197.37822l0.05264-.23022a4.57768,4.57768,0,0,0,.1085-0.85182c0-.89458-0.59529-1.434-1.75952-1.434a4.13467,4.13467,0,0,0-1.69709.35191l-0.17429-.569a4.89519,4.89519,0,0,1,1.91082-.37822c1.48987,0,2.345.74329,2.345,1.93386a4.61009,4.61009,0,0,1-.15131,1.04258l-0.97348,4.08808h-0.638l0.2861-1.10835a2.95105,2.95105,0,0,1-2.36138,1.25635,1.84966,1.84966,0,0,1-1.97661-1.90756" transform="translate(-10 -10)"/><polygon class="c" points="196.571 374.388 194.174 384.16 194.812 384.16 197.196 374.388 196.571 374.388"/><path class="c" d="M211.99257,387.18915h0.62485l-0.4078,1.651a3.43176,3.43176,0,0,1,2.99616-1.7464l-0.1776.67751h-0.05259a3.4634,3.4634,0,0,0-3.21326,2.91066l-0.83868,3.47636h-0.638Z" transform="translate(-10 -10)"/><path class="c" d="M219.37936,391.54923l0.2039-.81235a6.69947,6.69947,0,0,0-2.12792-.35191,2.18428,2.18428,0,0,0-1.57208.58213,1.96416,1.96416,0,0,0-.54264,1.378,1.32293,1.32293,0,0,0,1.45038,1.39449,2.81671,2.81671,0,0,0,2.58836-2.1904m-4.70308.85182a2.5112,2.5112,0,0,1,.72025-1.799,2.93077,2.93077,0,0,1,2.11477-.77289,7.38922,7.38922,0,0,1,2.19366.37822l0.05264-.23022a4.57768,4.57768,0,0,0,.1085-0.85182c0-.89458-0.59529-1.434-1.75952-1.434a4.11909,4.11909,0,0,0-1.69377.35191l-0.1776-.569a4.89519,4.89519,0,0,1,1.91082-.37822c1.49314,0,2.345.74329,2.345,1.93386a4.77608,4.77608,0,0,1-.148,1.04258l-0.97679,4.08808h-0.638l0.2861-1.10835a2.94973,2.94973,0,0,1-2.35812,1.25635,1.85057,1.85057,0,0,1-1.97988-1.90756" transform="translate(-10 -10)"/><path class="c" d="M226.02027,392.88781a4.46857,4.46857,0,0,0,1.19389-3.0192,2.041,2.041,0,0,0-1.94048-2.2463,2.33133,2.33133,0,0,0-1.651.717,4.65508,4.65508,0,0,0-1.16754,3.154c0,1.355.66434,2.23315,1.74968,2.23315a2.59226,2.59226,0,0,0,1.81547-.83866m0.54269-.01316a3.17016,3.17016,0,0,1-2.46666,1.434c-1.355,0-2.30552-1.06889-2.30552-2.74622a5.23862,5.23862,0,0,1,1.36818-3.60133,2.96764,2.96764,0,0,1,2.08842-.92088,2.33556,2.33556,0,0,1,2.27923,1.81546l1.09517-4.46631h0.638l-2.39761,9.77128h-0.6249Z" transform="translate(-10 -10)"/><path class="c" d="M230.82046,387.18751l-1.71023,6.97244h0.638l1.69377-6.97244h-0.62158Zm0.58214-2.62453-0.23025.92089h0.75643l0.23025-.92089H231.4026Z" transform="translate(-10 -10)"/><path class="c" d="M236.72892,392.9128a4.41566,4.41566,0,0,0,1.15108-2.97644c0-1.47342-.786-2.29894-1.95358-2.29894a2.53794,2.53794,0,0,0-1.77271.79591,4.39839,4.39839,0,0,0-1.15439,2.97973c0,1.47342.786,2.29893,1.95358,2.29893a2.53549,2.53549,0,0,0,1.776-.7992m1.81547-3.00275a4.85317,4.85317,0,0,1-1.32873,3.38427,3.27306,3.27306,0,0,1-2.31867,1.01627,2.59064,2.59064,0,0,1-2.562-2.8712,4.85313,4.85313,0,0,1,1.32868-3.38426,3.26961,3.26961,0,0,1,2.31867-1.013,2.57915,2.57915,0,0,1,2.56206,2.86791" transform="translate(-10 -10)"/><polygon class="c" points="231.851 374.388 229.45 384.16 230.088 384.16 232.473 374.388 231.851 374.388"/><path class="c" d="M247.06886,392.9128a4.41566,4.41566,0,0,0,1.15108-2.97644c0-1.47342-.786-2.29894-1.95032-2.29894a2.53932,2.53932,0,0,0-1.776.79591,4.414,4.414,0,0,0-1.15439,2.97973c0,1.47342.786,2.29893,1.95358,2.29893a2.53549,2.53549,0,0,0,1.776-.7992m1.81547-3.00275a4.85317,4.85317,0,0,1-1.32873,3.38427,3.26721,3.26721,0,0,1-2.31867,1.01627,2.58828,2.58828,0,0,1-2.55875-2.8712,4.83854,4.83854,0,0,1,1.32873-3.38426,3.25632,3.25632,0,0,1,2.31536-1.013,2.57915,2.57915,0,0,1,2.56206,2.86791" transform="translate(-10 -10)"/><path class="c" d="M254.52245,392.27936a3.6916,3.6916,0,0,0,1.02943-2.53244,1.9854,1.9854,0,0,0-1.96347-2.11147,2.46372,2.46372,0,0,0-1.73653.75974,3.97379,3.97379,0,0,0-1.04258,2.70675,1.82188,1.82188,0,0,0,1.82862,2.00293,2.74634,2.74634,0,0,0,1.88452-.82551m-5.16352,2.95013,0.39134-.49991a3.87811,3.87811,0,0,0,2.41407.89129,2.32209,2.32209,0,0,0,1.76283-.64791,3.298,3.298,0,0,0,.79919-1.5984l0.25654-1.02942a3.21844,3.21844,0,0,1-2.46666,1.34186,2.37017,2.37017,0,0,1-2.37126-2.57191,4.52436,4.52436,0,0,1,1.23333-3.10142,3.15937,3.15937,0,0,1,2.21012-.97351,2.27359,2.27359,0,0,1,2.23642,1.75955l0.40454-1.61155h0.6249l-1.51948,6.29493a3.74911,3.74911,0,0,1-.94718,1.88124,2.96248,2.96248,0,0,1-2.26277.85511,4.55045,4.55045,0,0,1-2.76591-.99" transform="translate(-10 -10)"/><path class="c" d="M258.16785,387.18915h0.66434l0.88139,6.17324,3.63094-6.17324H264.078l-4.29528,7.14675c-0.85514,1.40765-1.54578,1.8944-2.38772,1.8944a1.99771,1.99771,0,0,1-1.24653-.43413l0.3388-.52622a1.65138,1.65138,0,0,0,.96364.36507c0.56894,0,1.05573-.36507,1.776-1.503Z" transform="translate(-10 -10)"/><path class="c" d="M267.88586,393.0506a3.39788,3.39788,0,0,1,.09535-0.69066l1.11163-4.588h-0.89459l0.13485-.58213h0.89459l0.5295-2.13777H270.392l-0.52623,2.13777h1.96347l-0.13485.58213h-1.97988l-1.12483,4.70969a2.26265,2.26265,0,0,0-.06579.48675,0.75712,0.75712,0,0,0,.93408.70382,2.34564,2.34564,0,0,0,.84194-0.18746l-0.13816.60844a2.06577,2.06577,0,0,1-.85178.16115,1.2238,1.2238,0,0,1-1.42408-1.20374" transform="translate(-10 -10)"/><path class="c" d="M274.20217,384.38834h0.63473l-0.98668,4.00586a2.80555,2.80555,0,0,1,2.28906-1.35173,1.81051,1.81051,0,0,1,1.924,1.947,5.18423,5.18423,0,0,1-.148,1.06889l-0.97684,4.10124h-0.63473l1.00309-4.15386a4.26433,4.26433,0,0,0,.1217-0.96035,1.33719,1.33719,0,0,0-1.47668-1.43724,2.9195,2.9195,0,0,0-2.49627,2.35485l-1.01628,4.19662h-0.638Z" transform="translate(-10 -10)"/><path class="c" d="M280.69377,387.18915h0.62158l-0.40454,1.651a3.43176,3.43176,0,0,1,2.99616-1.7464l-0.1776.67751h-0.05591a3.463,3.463,0,0,0-3.20995,2.91066l-0.84194,3.47636H278.9868Z" transform="translate(-10 -10)"/><path class="c" d="M288.21642,392.9128a4.41566,4.41566,0,0,0,1.15108-2.97644c0-1.47342-.786-2.29894-1.95032-2.29894a2.53932,2.53932,0,0,0-1.776.79591,4.414,4.414,0,0,0-1.15439,2.97973c0,1.47342.7893,2.29893,1.95358,2.29893a2.53549,2.53549,0,0,0,1.776-.7992m1.81547-3.00275a4.83855,4.83855,0,0,1-1.32873,3.38427,3.26721,3.26721,0,0,1-2.31867,1.01627,2.58828,2.58828,0,0,1-2.55875-2.8712,4.83854,4.83854,0,0,1,1.32873-3.38426,3.25632,3.25632,0,0,1,2.31536-1.013,2.57915,2.57915,0,0,1,2.56206,2.86791" transform="translate(-10 -10)"/><path class="c" d="M291.30567,392.34612a5.298,5.298,0,0,1,.148-1.06888l0.98994-4.08809h0.6249l-1.00314,4.14071a5.07873,5.07873,0,0,0-.1217.96364,1.34609,1.34609,0,0,0,1.47673,1.44711,2.90594,2.90594,0,0,0,2.493-2.35485l1.01628-4.19662h0.638l-1.69377,6.97243h-0.638l0.2993-1.207a2.88506,2.88506,0,0,1-2.29237,1.355,1.82183,1.82183,0,0,1-1.93712-1.96347" transform="translate(-10 -10)"/><path class="c" d="M302.85391,392.27936a3.6916,3.6916,0,0,0,1.02943-2.53244,1.9854,1.9854,0,0,0-1.96347-2.11147,2.45789,2.45789,0,0,0-1.73653.75974,3.97379,3.97379,0,0,0-1.04258,2.70675,1.82188,1.82188,0,0,0,1.82862,2.00293,2.74634,2.74634,0,0,0,1.88453-.82551m-5.16352,2.95013,0.39134-.49991a3.87811,3.87811,0,0,0,2.41407.89129,2.32209,2.32209,0,0,0,1.76283-.64791,3.298,3.298,0,0,0,.79919-1.5984l0.25654-1.02942a3.22383,3.22383,0,0,1-2.46666,1.34186,2.37017,2.37017,0,0,1-2.37126-2.57191,4.52436,4.52436,0,0,1,1.23333-3.10142,3.15352,3.15352,0,0,1,2.21012-.97351,2.27643,2.27643,0,0,1,2.23642,1.75955l0.40454-1.61155h0.6249l-1.51948,6.29493a3.77564,3.77564,0,0,1-.94718,1.88124,2.97008,2.97008,0,0,1-2.266.85511,4.54851,4.54851,0,0,1-2.76265-.99" transform="translate(-10 -10)"/><path class="c" d="M308.03163,384.38834h0.63473l-0.98668,4.00586a2.80555,2.80555,0,0,1,2.28906-1.35173,1.81051,1.81051,0,0,1,1.924,1.947,5.18423,5.18423,0,0,1-.148,1.06889l-0.97684,4.10124h-0.63473l1.00309-4.15386a4.26433,4.26433,0,0,0,.1217-0.96035,1.33719,1.33719,0,0,0-1.47668-1.43724A2.9195,2.9195,0,0,0,307.285,389.963l-1.01628,4.19662h-0.638Z" transform="translate(-10 -10)"/><path class="c" d="M317.74864,387.18915h0.62158l-0.40454,1.651a3.43176,3.43176,0,0,1,2.99616-1.7464l-0.1776.67751h-0.05591a3.463,3.463,0,0,0-3.20995,2.91066l-0.84194,3.47636h-0.63478Z" transform="translate(-10 -10)"/><path class="c" d="M321.67913,390.34254h4.22954a2.91436,2.91436,0,0,0,.09535-0.81235,1.64463,1.64463,0,0,0-1.60169-1.90756,2.40626,2.40626,0,0,0-1.68063.74329,4.37951,4.37951,0,0,0-1.04258,1.97662m-0.12165.569a4.20963,4.20963,0,0,0-.02635.569,1.97108,1.97108,0,0,0,1.97661,2.22,2.986,2.986,0,0,0,1.94048-.73013l0.3256,0.4736a3.53154,3.53154,0,0,1-2.27923.85182,2.55394,2.55394,0,0,1-2.62781-2.789,5.12039,5.12039,0,0,1,1.38133-3.4928,3.07908,3.07908,0,0,1,2.18382-.97351,2.20372,2.20372,0,0,1,2.20686,2.47653,4.714,4.714,0,0,1-.2171,1.39449h-4.86422Z" transform="translate(-10 -10)"/><path class="c" d="M327.05915,393.06376l0.48674-.44729a2.74068,2.74068,0,0,0,2.07528,1.08533,1.48263,1.48263,0,0,0,1.57208-1.32871c0-.48676-0.273-0.89457-1.28593-1.46027-1.15439-.638-1.628-1.1248-1.628-1.95031a2.01528,2.01528,0,0,1,2.21017-1.8944,3.12806,3.12806,0,0,1,2.23642,1.02943l-0.46375.4736a2.50179,2.50179,0,0,0-1.81542-.934,1.37107,1.37107,0,0,0-1.503,1.2728c0,0.48675.24334,0.83866,1.31553,1.44711,1.16428,0.66436,1.59842,1.20374,1.59842,1.96347a2.13056,2.13056,0,0,1-2.29237,1.96018,3.28312,3.28312,0,0,1-2.50611-1.21689" transform="translate(-10 -10)"/><path class="c" d="M334.2019,390.34254h4.22954a2.79545,2.79545,0,0,0,.09535-0.81235,1.64463,1.64463,0,0,0-1.60169-1.90756,2.40626,2.40626,0,0,0-1.68063.74329,4.37951,4.37951,0,0,0-1.04258,1.97662m-0.12165.569a4.20963,4.20963,0,0,0-.02635.569,1.97108,1.97108,0,0,0,1.97661,2.22,2.986,2.986,0,0,0,1.94048-.73013l0.3256,0.4736a3.53154,3.53154,0,0,1-2.27923.85182,2.55566,2.55566,0,0,1-2.62781-2.789,5.12039,5.12039,0,0,1,1.38133-3.4928,3.07908,3.07908,0,0,1,2.18382-.97351,2.20372,2.20372,0,0,1,2.20686,2.47653,4.714,4.714,0,0,1-.2171,1.39449h-4.86422Z" transform="translate(-10 -10)"/><path class="c" d="M344.58365,391.54923l0.2039-.81235a6.69947,6.69947,0,0,0-2.12792-.35191,2.18428,2.18428,0,0,0-1.57208.58213,1.96416,1.96416,0,0,0-.54264,1.378,1.32293,1.32293,0,0,0,1.45038,1.39449,2.81671,2.81671,0,0,0,2.58836-2.1904m-4.70308.85182a2.5112,2.5112,0,0,1,.72025-1.799,2.928,2.928,0,0,1,2.11146-.77289,7.39306,7.39306,0,0,1,2.197.37822l0.05264-.23022a4.57768,4.57768,0,0,0,.1085-0.85182c0-.89458-0.59529-1.434-1.75952-1.434a4.13467,4.13467,0,0,0-1.69709.35191l-0.17429-.569a4.89519,4.89519,0,0,1,1.91082-.37822c1.48987,0,2.345.74329,2.345,1.93386a4.77608,4.77608,0,0,1-.148,1.04258l-0.97679,4.08808h-0.638l0.2861-1.10835a2.94973,2.94973,0,0,1-2.35812,1.25635,1.85057,1.85057,0,0,1-1.97988-1.90756" transform="translate(-10 -10)"/><path class="c" d="M348.32475,387.18915h0.62158l-0.40454,1.651a3.43176,3.43176,0,0,1,2.99616-1.7464l-0.1776.67751h-0.05591a3.463,3.463,0,0,0-3.20995,2.91066l-0.84194,3.47636h-0.63478Z" transform="translate(-10 -10)"/><path class="c" d="M351.42715,391.52061a5.05907,5.05907,0,0,1,1.36813-3.46648,3.27528,3.27528,0,0,1,2.27923-.99982,2.45118,2.45118,0,0,1,2.19366,1.25965l-0.52618.36507a1.88672,1.88672,0,0,0-1.71023-1.04258,2.53173,2.53173,0,0,0-1.74642.7992,4.52721,4.52721,0,0,0-1.18069,3.0192,1.971,1.971,0,0,0,1.91082,2.2463,2.5134,2.5134,0,0,0,1.73653-.74657l0.39139,0.44729a3.155,3.155,0,0,1-2.16736.89458,2.54314,2.54314,0,0,1-2.54887-2.77583" transform="translate(-10 -10)"/><path class="c" d="M359.87238,384.38834h0.63473l-0.98668,4.00586a2.80555,2.80555,0,0,1,2.28906-1.35173,1.81051,1.81051,0,0,1,1.924,1.947,5.18423,5.18423,0,0,1-.148,1.06889l-0.97684,4.10124H361.974l1.00309-4.15386a4.26433,4.26433,0,0,0,.1217-0.96035,1.33719,1.33719,0,0,0-1.47668-1.43724,2.9195,2.9195,0,0,0-2.49627,2.35485l-1.01628,4.19662h-0.638Z" transform="translate(-10 -10)"/><rect class="b" x="124.41667" y="246.23" width="228.233" height="57.27"/></svg>