<svg xmlns="http://www.w3.org/2000/svg" viewBox="0 0 97.79971 57.27017"><defs><style>.a{fill:#005d7d;}.b{fill:#c4d82e;}.c{fill:#495965;}</style></defs><title>logo_sir</title><path class="a" d="M0.1544,31.621a0.17021,0.17021,0,0,1-.039-0.002,0.142,0.142,0,0,1-.103-0.137c-0.211-5.469,2.341-10.87,7.185-15.207,5.191-4.649,12.376-7.561,20.775-8.419,10.268-1.049,21.944,1.126,33.766,6.29a0.14857,0.14857,0,0,1-.012.288l-0.005.001a0.12021,0.12021,0,0,1-.059-0.009c-7.82-3.321-18.799-4.758-28.652-3.751-9.232.943-25.763,4.908-32.75,20.865a0.136,0.136,0,0,1-.106.081" transform="translate(-0.00029 0.00007)"/><path class="b" d="M35.3016,0.00021l-0.015.003a54.44579,54.44579,0,0,0-16.994,7.74c-4.359,3.118-7.426,6.708-8.87,10.382a11.9653,11.9653,0,0,0,.886,11.031,0.078,0.078,0,0,0,.073.038l0.021-.005a0.078,0.078,0,0,0,.05-0.087c-1.346-7.639,3.335-14.118,7.499-18.208A48.77776,48.77776,0,0,1,35.3336.15321a0.07985,0.07985,0,0,0,.05-0.098,0.07884,0.07884,0,0,0-.082-0.055" transform="translate(-0.00029 0.00007)"/><path class="c" d="M22.0912,43.67711c1.312,0,2.25-.675,2.25-1.8v-0.025c0-1.075-.825-1.725-2.238-1.725h-2.7v3.55h2.688Zm-3.676-4.463h3.763a3.45107,3.45107,0,0,1,2.488.875,2.41478,2.41478,0,0,1,.676,1.726v0.025a2.56171,2.56171,0,0,1-2.376,2.55l2.688,3.576h-1.213l-2.538-3.401h-2.5v3.401h-0.988v-8.752Z" transform="translate(-0.00029 0.00007)"/><path class="c" d="M31.2427,45.59051v-0.6a6.6272,6.6272,0,0,0-1.888-.275c-1.2,0-1.888.525-1.888,1.3v0.025a1.43264,1.43264,0,0,0,1.626,1.288,1.93354,1.93354,0,0,0,2.15-1.738m-4.751.5v-0.025c0-1.388,1.125-2.113,2.763-2.113a6.78773,6.78773,0,0,1,1.975.275v-0.2a1.65521,1.65521,0,0,0-1.912-1.75,4.49591,4.49591,0,0,0-1.963.462l-0.288-.787a5.28956,5.28956,0,0,1,2.351-.55,2.873,2.873,0,0,1,2.088.712,2.557,2.557,0,0,1,.675,1.901v3.95h-0.951v-0.962a2.83267,2.83267,0,0,1-2.325,1.1,2.17025,2.17025,0,0,1-2.413-2.013" transform="translate(-0.00029 0.00007)"/><path class="c" d="M39.1315,44.73991v-0.025a2.40164,2.40164,0,0,0-2.338-2.488,2.28125,2.28125,0,0,0-2.275,2.488v0.025a2.32737,2.32737,0,0,0,2.275,2.501,2.41347,2.41347,0,0,0,2.338-2.501m-5.601.013v-0.025a3.17176,3.17176,0,0,1,3.088-3.363,2.91722,2.91722,0,0,1,2.476,1.375v-3.901h0.962v9.127h-0.962v-1.3a2.90814,2.90814,0,0,1-2.476,1.438,3.15346,3.15346,0,0,1-3.088-3.351" transform="translate(-0.00029 0.00007)"/><path class="c" d="M41.982,41.50261h0.963v6.464H41.982v-6.464Zm-0.063-2.476h1.1v1.063h-1.1v-1.063Z" transform="translate(-0.00029 0.00007)"/><path class="c" d="M50.2204,44.76531v-0.025a2.44579,2.44579,0,0,0-2.4-2.526,2.38554,2.38554,0,0,0-2.363,2.501v0.025a2.4247,2.4247,0,0,0,2.388,2.513,2.38472,2.38472,0,0,0,2.375-2.488m-5.751,0v-0.025a3.36953,3.36953,0,0,1,6.739-.025v0.025a3.35685,3.35685,0,0,1-3.388,3.376,3.312,3.312,0,0,1-3.351-3.351" transform="translate(-0.00029 0.00007)"/><rect class="c" x="52.72071" y="38.83967" width="0.963" height="9.127"/><path class="c" d="M60.96,44.76531v-0.025a2.44579,2.44579,0,0,0-2.4-2.526,2.38554,2.38554,0,0,0-2.363,2.501v0.025a2.4247,2.4247,0,0,0,2.388,2.513,2.38472,2.38472,0,0,0,2.375-2.488m-5.751,0v-0.025a3.36953,3.36953,0,0,1,6.739-.025v0.025a3.35685,3.35685,0,0,1-3.388,3.376,3.312,3.312,0,0,1-3.351-3.351" transform="translate(-0.00029 0.00007)"/><path class="c" d="M68.59859,44.42721v-0.024a2.264,2.264,0,0,0-2.375-2.188,2.13715,2.13715,0,0,0-2.238,2.175v0.025a2.18784,2.18784,0,0,0,2.238,2.2,2.28032,2.28032,0,0,0,2.375-2.188m-5.301,4.664,0.438-.75a4.13035,4.13035,0,0,0,2.488.825,2.12442,2.12442,0,0,0,2.35-2.3v-0.763a3.06366,3.06366,0,0,1-2.538,1.363,2.98909,2.98909,0,0,1-3.038-3.026v-0.025a3.06,3.06,0,0,1,5.564-1.75v-1.163h0.963v5.339a3.1122,3.1122,0,0,1-.826,2.287,3.39509,3.39509,0,0,1-2.463.863,5.06926,5.06926,0,0,1-2.938-.9" transform="translate(-0.00029 0.00007)"/><path class="c" d="M70.9866,49.67871l0.325-.763a2.0185,2.0185,0,0,0,1.013.238c0.575,0,.937-0.3,1.325-1.213l-2.938-6.438h1.063l2.35,5.388,2.076-5.388h1.025l-2.713,6.676c-0.551,1.338-1.176,1.825-2.151,1.825a2.93077,2.93077,0,0,1-1.375-.325" transform="translate(-0.00029 0.00007)"/><rect class="c" x="18.41071" y="27.12367" width="0.988" height="8.752"/><path class="c" d="M21.4867,29.41231h0.963v1.125a2.44787,2.44787,0,0,1,2.213-1.263,2.36135,2.36135,0,0,1,2.475,2.589v4.013h-0.962v-3.776a1.72259,1.72259,0,0,0-1.788-1.95,1.90128,1.90128,0,0,0-1.938,2.025v3.701h-0.963v-6.464Z" transform="translate(-0.00029 0.00007)"/><path class="c" d="M29.2131,34.16331v-3.901h-0.9v-0.85h0.9v-1.95h0.963v1.95h2.05v0.85h-2.05v3.776a0.9556,0.9556,0,0,0,1.087,1.075,2.01544,2.01544,0,0,0,.938-0.225v0.825a2.41869,2.41869,0,0,1-1.162.275,1.64543,1.64543,0,0,1-1.826-1.825" transform="translate(-0.00029 0.00007)"/><path class="c" d="M38.3526,32.26331a2.12334,2.12334,0,0,0-2.063-2.176,2.23214,2.23214,0,0,0-2.101,2.176h4.164Zm-1.888,2.925a2.67169,2.67169,0,0,0,2.038-.913l0.6,0.538a3.33715,3.33715,0,0,1-2.663,1.213,3.21692,3.21692,0,0,1-3.226-3.376,3.19272,3.19272,0,0,1,3.101-3.376c1.913,0,3.013,1.526,3.013,3.426,0,0.088,0,.188-0.012.338h-5.127a2.25959,2.25959,0,0,0,2.276,2.15" transform="translate(-0.00029 0.00007)"/><path class="c" d="M40.7024,29.41231h0.963v1.688a2.76893,2.76893,0,0,1,2.638-1.801v1.038h-0.075c-1.413,0-2.563,1.013-2.563,2.963v2.576h-0.963v-6.464Z" transform="translate(-0.00029 0.00007)"/><polygon class="c" points="44.816 29.412 45.879 29.412 48.054 34.776 50.242 29.412 51.28 29.412 48.467 35.926 47.617 35.926 44.816 29.412"/><path class="c" d="M57.2183,32.26331a2.12268,2.12268,0,0,0-2.063-2.176,2.23057,2.23057,0,0,0-2.1,2.176h4.163Zm-1.888,2.925a2.67169,2.67169,0,0,0,2.038-.913l0.6,0.538a3.33715,3.33715,0,0,1-2.663,1.213,3.21692,3.21692,0,0,1-3.226-3.376,3.19272,3.19272,0,0,1,3.101-3.376c1.913,0,3.013,1.526,3.013,3.426,0,0.088,0,.188-0.012.338h-5.126a2.25808,2.25808,0,0,0,2.275,2.15" transform="translate(-0.00029 0.00007)"/><path class="c" d="M59.5686,29.41231h0.963v1.125a2.44739,2.44739,0,0,1,2.212-1.263,2.3621,2.3621,0,0,1,2.476,2.589v4.013h-0.963v-3.776a1.72237,1.72237,0,0,0-1.787-1.95,1.90128,1.90128,0,0,0-1.938,2.025v3.701h-0.963v-6.464Z" transform="translate(-0.00029 0.00007)"/><path class="c" d="M67.2949,34.16331v-3.901h-0.9v-0.85h0.9v-1.95h0.963v1.95h2.05v0.85h-2.05v3.776a0.9556,0.9556,0,0,0,1.087,1.075,2.01546,2.01546,0,0,0,.938-0.225v0.825a2.41872,2.41872,0,0,1-1.162.275,1.64542,1.64542,0,0,1-1.826-1.825" transform="translate(-0.00029 0.00007)"/><path class="c" d="M71.783,29.41261h0.962v6.464H71.783v-6.464Zm-0.062-2.476h1.1v1.063h-1.1v-1.063Z" transform="translate(-0.00029 0.00007)"/><path class="c" d="M80.0218,32.67541v-0.025a2.44579,2.44579,0,0,0-2.4-2.526,2.38554,2.38554,0,0,0-2.363,2.501v0.025a2.4247,2.4247,0,0,0,2.388,2.513,2.38472,2.38472,0,0,0,2.375-2.488m-5.751,0v-0.025a3.36953,3.36953,0,0,1,6.739-.025v0.025a3.35686,3.35686,0,0,1-3.388,3.376,3.312,3.312,0,0,1-3.351-3.351" transform="translate(-0.00029 0.00007)"/><path class="c" d="M82.4346,29.41231h0.963v1.125a2.44786,2.44786,0,0,1,2.213-1.263,2.36135,2.36135,0,0,1,2.475,2.589v4.013h-0.962v-3.776a1.72259,1.72259,0,0,0-1.788-1.95,1.90128,1.90128,0,0,0-1.938,2.025v3.701h-0.963v-6.464Z" transform="translate(-0.00029 0.00007)"/><path class="c" d="M94.0871,33.50061v-0.6a6.62726,6.62726,0,0,0-1.888-.275c-1.2,0-1.888.525-1.888,1.3v0.025a1.43264,1.43264,0,0,0,1.626,1.288,1.93355,1.93355,0,0,0,2.15-1.738m-4.751.5v-0.025c0-1.388,1.125-2.113,2.763-2.113a6.78775,6.78775,0,0,1,1.975.275v-0.2a1.65521,1.65521,0,0,0-1.912-1.75,4.49589,4.49589,0,0,0-1.963.462l-0.288-.787a5.28955,5.28955,0,0,1,2.351-.55,2.873,2.873,0,0,1,2.088.712,2.557,2.557,0,0,1,.675,1.901v3.95h-0.951v-0.962a2.83269,2.83269,0,0,1-2.325,1.1,2.17025,2.17025,0,0,1-2.413-2.013" transform="translate(-0.00029 0.00007)"/><rect class="c" x="96.83671" y="26.74867" width="0.963" height="9.127"/><path class="c" d="M17.5793,23.48561l0.372-.44a2.52438,2.52438,0,0,0,1.82.751,1.01927,1.01927,0,0,0,1.183-.902v-0.016c0-.493-0.266-0.773-1.38-1.008-1.221-.266-1.782-0.66-1.782-1.532v-0.016a1.56681,1.56681,0,0,1,1.744-1.448,2.774,2.774,0,0,1,1.866.652l-0.349.463a2.3325,2.3325,0,0,0-1.532-.577,0.97948,0.97948,0,0,0-1.13.857v0.016c0,0.5.273,0.781,1.441,1.031,1.183,0.258,1.729.69,1.729,1.502v0.015a1.59806,1.59806,0,0,1-1.813,1.502,3.10551,3.10551,0,0,1-2.169-.85" transform="translate(-0.00029 0.00007)"/><path class="c" d="M25.7781,22.31781v-0.015a1.48416,1.48416,0,0,0-1.457-1.532,1.44706,1.44706,0,0,0-1.433,1.517v0.015a1.47051,1.47051,0,0,0,1.448,1.524,1.44687,1.44687,0,0,0,1.442-1.509m-3.489,0v-0.015a2.044,2.044,0,0,1,4.088-.015v0.015a2.0364,2.0364,0,0,1-2.056,2.048,2.0091,2.0091,0,0,1-2.032-2.033" transform="translate(-0.00029 0.00007)"/><path class="c" d="M27.0363,22.31781v-0.015a2.0423,2.0423,0,0,1,3.58-1.35l-0.387.409a1.58311,1.58311,0,0,0-1.19-.591,1.44732,1.44732,0,0,0-1.404,1.517v0.015a1.465,1.465,0,0,0,1.441,1.524,1.61391,1.61391,0,0,0,1.198-.584l0.372,0.349a2.028,2.028,0,0,1-3.61-1.274" transform="translate(-0.00029 0.00007)"/><path class="c" d="M31.511,24.25961h0.584v-3.921H31.511v3.921Zm-0.038-4.778H32.14v-0.644H31.473v0.644Z" transform="translate(-0.00029 0.00007)"/><path class="c" d="M36.1756,22.06721a1.28779,1.28779,0,0,0-1.252-1.319,1.35293,1.35293,0,0,0-1.274,1.319h2.526Zm-1.146,1.775a1.61977,1.61977,0,0,0,1.236-.554l0.364,0.326a2.02274,2.02274,0,0,1-1.615.736,2.05218,2.05218,0,0,1-.076-4.095,1.86875,1.86875,0,0,1,1.828,2.078c0,0.053,0,.114-0.008.205h-3.109a1.36983,1.36983,0,0,0,1.38,1.304" transform="translate(-0.00029 0.00007)"/><path class="c" d="M37.8432,23.22031v-2.366h-0.546v-0.516h0.546v-1.183h0.584v1.183h1.244v0.516h-1.244v2.29a0.57976,0.57976,0,0,0,.66.652,1.22407,1.22407,0,0,0,.569-0.136v0.501a1.473,1.473,0,0,1-.706.166,0.9981,0.9981,0,0,1-1.107-1.107" transform="translate(-0.00029 0.00007)"/><path class="c" d="M40.3227,25.29841l0.197-.463a1.22281,1.22281,0,0,0,.614.144,0.87916,0.87916,0,0,0,.804-0.735l-1.782-3.906h0.645l1.426,3.269,1.259-3.269h0.622l-1.646,4.05a1.36988,1.36988,0,0,1-1.304,1.107,1.7859,1.7859,0,0,1-.835-0.197" transform="translate(-0.00029 0.00007)"/><path class="c" d="M50.2504,22.31781v-0.015a1.48417,1.48417,0,0,0-1.457-1.532,1.44706,1.44706,0,0,0-1.433,1.517v0.015a1.47069,1.47069,0,0,0,1.449,1.524,1.44667,1.44667,0,0,0,1.441-1.509m-3.489,0v-0.015a2.044,2.044,0,0,1,4.088-.015v0.015a2.0364,2.0364,0,0,1-2.056,2.048,2.0091,2.0091,0,0,1-2.032-2.033" transform="translate(-0.00029 0.00007)"/><path class="c" d="M51.9713,20.854h-0.538V20.346h0.538V20.004a1.3824,1.3824,0,0,1,.341-1.008,1.15627,1.15627,0,0,1,.842-0.304,1.78177,1.78177,0,0,1,.645.099v0.508a1.98079,1.98079,0,0,0-.569-0.099,0.677,0.677,0,0,0-.682.835v0.318h1.243v0.501h-1.236v3.405h-0.584V20.854Z" transform="translate(-0.00029 0.00007)"/><polygon class="a" points="18.696 53.352 18.629 53.606 19.754 53.606 18.872 57.209 19.148 57.209 20.029 53.606 21.153 53.606 21.22 53.352 18.696 53.352"/><path class="a" d="M21.9853,53.23111h0.259l-0.402,1.631a1.143,1.143,0,0,1,.931-0.551,0.73738,0.73738,0,0,1,.782.793,2.17954,2.17954,0,0,1-.06.436l-0.397,1.669h-0.259l0.408-1.691a1.70531,1.70531,0,0,0,.049-0.392,0.54334,0.54334,0,0,0-.6-0.584,1.186,1.186,0,0,0-1.014.959l-0.413,1.708h-0.259Z" transform="translate(-0.00029 0.00007)"/><path class="a" d="M24.5861,55.65571h1.719a1.18622,1.18622,0,0,0,.038-0.331,0.669,0.669,0,0,0-.65-0.777,0.97889,0.97889,0,0,0-.683.303,1.76119,1.76119,0,0,0-.424.805m-0.05.231a1.67383,1.67383,0,0,0-.011.232,0.80215,0.80215,0,0,0,.804.903,1.20408,1.20408,0,0,0,.788-0.298l0.132,0.193a1.42521,1.42521,0,0,1-.925.348,1.03991,1.03991,0,0,1-1.069-1.136,2.08565,2.08565,0,0,1,.562-1.421,1.25174,1.25174,0,0,1,.887-0.397,0.89691,0.89691,0,0,1,.898,1.009,1.93607,1.93607,0,0,1-.088.567h-1.978Z" transform="translate(-0.00029 0.00007)"/><polygon class="a" points="31.031 54.372 29.527 56.879 29.241 54.372 28.966 54.372 29.345 57.231 29.566 57.231 31.329 54.372 31.031 54.372"/><path class="a" d="M32.199,54.37141l-0.694,2.838h0.259l0.689-2.838H32.199Zm0.237-1.069-0.094.375h0.309l0.094-.375H32.436Z" transform="translate(-0.00029 0.00007)"/><path class="a" d="M32.7445,56.76271l0.198-.182a1.11068,1.11068,0,0,0,.843.441,0.60259,0.60259,0,0,0,.639-0.54,0.73042,0.73042,0,0,0-.523-0.595,0.92357,0.92357,0,0,1-.661-0.793,0.81993,0.81993,0,0,1,.898-0.772,1.2707,1.2707,0,0,1,.909.419l-0.187.193a1.02352,1.02352,0,0,0-.739-0.38,0.55734,0.55734,0,0,0-.611.517,0.7239,0.7239,0,0,0,.534.59,0.94582,0.94582,0,0,1,.65.799,0.86618,0.86618,0,0,1-.931.799,1.33067,1.33067,0,0,1-1.019-.496" transform="translate(-0.00029 0.00007)"/><path class="a" d="M36.1212,54.37141l-0.694,2.838h0.26l0.688-2.838h-0.254Zm0.237-1.069-0.094.375h0.309l0.094-.375h-0.309Z" transform="translate(-0.00029 0.00007)"/><path class="a" d="M38.7168,56.70211a1.80543,1.80543,0,0,0,.468-1.212,0.80649,0.80649,0,0,0-.793-0.937,1.03077,1.03077,0,0,0-.722.326,1.78728,1.78728,0,0,0-.468,1.212,0.80611,0.80611,0,0,0,.793.936,1.03563,1.03563,0,0,0,.722-0.325m0.738-1.223a1.97309,1.97309,0,0,1-.54,1.377,1.32616,1.32616,0,0,1-.942.414,1.0527,1.0527,0,0,1-1.041-1.168,1.97111,1.97111,0,0,1,.54-1.378,1.32335,1.32335,0,0,1,.942-0.413,1.0501,1.0501,0,0,1,1.041,1.168" transform="translate(-0.00029 0.00007)"/><path class="a" d="M40.672,54.37171h0.254l-0.116.49a1.143,1.143,0,0,1,.931-0.551,0.73766,0.73766,0,0,1,.782.794,2.171,2.171,0,0,1-.06.435l-0.397,1.669H41.807l0.408-1.691a1.6979,1.6979,0,0,0,.049-0.391,0.54334,0.54334,0,0,0-.6-0.584,1.187,1.187,0,0,0-1.014.958l-0.413,1.708H39.978Z" transform="translate(-0.00029 0.00007)"/><path class="a" d="M44.8754,56.75731a1.411,1.411,0,0,1,.039-0.281l0.451-1.868h-0.363l0.055-.237h0.364l0.214-.87h0.259l-0.214.87h0.798l-0.055.237h-0.804l-0.458,1.917a0.94388,0.94388,0,0,0-.027.199,0.30757,0.30757,0,0,0,.38.286,0.91476,0.91476,0,0,0,.342-0.077l-0.055.248a0.8402,0.8402,0,0,1-.347.066,0.49837,0.49837,0,0,1-.579-0.49" transform="translate(-0.00029 0.00007)"/><path class="a" d="M48.5283,56.70211a1.80543,1.80543,0,0,0,.468-1.212,0.807,0.807,0,0,0-.793-0.937,1.03077,1.03077,0,0,0-.722.326,1.78728,1.78728,0,0,0-.468,1.212,0.80611,0.80611,0,0,0,.793.936,1.03563,1.03563,0,0,0,.722-0.325m0.738-1.223a1.97309,1.97309,0,0,1-.54,1.377,1.32616,1.32616,0,0,1-.942.414,1.0527,1.0527,0,0,1-1.041-1.168,1.97111,1.97111,0,0,1,.54-1.378,1.32335,1.32335,0,0,1,.942-0.413,1.0501,1.0501,0,0,1,1.041,1.168" transform="translate(-0.00029 0.00007)"/><path class="a" d="M52.2685,53.23111h0.259l-0.402,1.631a1.143,1.143,0,0,1,.931-0.551,0.73738,0.73738,0,0,1,.782.793,2.17968,2.17968,0,0,1-.06.436l-0.397,1.669h-0.259l0.408-1.691a1.70521,1.70521,0,0,0,.049-0.392,0.54334,0.54334,0,0,0-.6-0.584,1.187,1.187,0,0,0-1.014.959l-0.413,1.708h-0.259Z" transform="translate(-0.00029 0.00007)"/><path class="a" d="M54.8692,55.65571h1.719a1.18621,1.18621,0,0,0,.038-0.331,0.669,0.669,0,0,0-.65-0.777,0.977,0.977,0,0,0-.683.303,1.76117,1.76117,0,0,0-.424.805m-0.05.231a1.67383,1.67383,0,0,0-.011.232,0.80163,0.80163,0,0,0,.804.903,1.20407,1.20407,0,0,0,.788-0.298l0.132,0.193a1.42724,1.42724,0,0,1-.925.348,1.03991,1.03991,0,0,1-1.069-1.136,2.08566,2.08566,0,0,1,.562-1.421,1.25174,1.25174,0,0,1,.887-0.397,0.89744,0.89744,0,0,1,.898,1.009,1.96992,1.96992,0,0,1-.088.567h-1.978Z" transform="translate(-0.00029 0.00007)"/><path class="a" d="M59.282,56.14581l0.082-.331a2.75129,2.75129,0,0,0-.865-0.143,0.88875,0.88875,0,0,0-.639.237,0.7999,0.7999,0,0,0-.22.562,0.538,0.538,0,0,0,.589.567,1.14428,1.14428,0,0,0,1.053-.892m-1.912.347a1.02746,1.02746,0,0,1,.292-0.733,1.19774,1.19774,0,0,1,.859-0.314,2.9844,2.9844,0,0,1,.893.154l0.022-.093a1.87739,1.87739,0,0,0,.044-0.347,0.59445,0.59445,0,0,0-.716-0.584,1.67263,1.67263,0,0,0-.689.143l-0.072-.232a2.00637,2.00637,0,0,1,.777-0.154,0.81011,0.81011,0,0,1,.954.788,1.92273,1.92273,0,0,1-.061.424l-0.397,1.664H59.017l0.116-.452a1.19618,1.19618,0,0,1-.959.513,0.75271,0.75271,0,0,1-.804-0.777" transform="translate(-0.00029 0.00007)"/><polygon class="a" points="61.314 53.231 60.339 57.209 60.598 57.209 61.568 53.231 61.314 53.231"/></svg>