<svg xmlns="http://www.w3.org/2000/svg" viewBox="0 0 97.79971 50.00377"><defs><style>.a{fill:#495965;}.b{fill:#005d7d;}.c{fill:#c4d82e;}</style></defs><title>logo_sir_notag</title><path class="a" d="M41.98171,41.50267h0.963v6.464h-0.963v-6.464Zm-0.063-2.476h1.1v1.063h-1.1v-1.063Z"/><rect class="a" x="52.72071" y="38.83967" width="0.963" height="9.127"/><rect class="a" x="18.41071" y="27.12367" width="0.988" height="8.752"/><polygon class="a" points="44.816 29.412 45.879 29.412 48.054 34.776 50.242 29.412 51.28 29.412 48.467 35.926 47.617 35.926 44.816 29.412"/><path class="a" d="M71.78271,29.41267h0.962v6.464h-0.962v-6.464Zm-0.062-2.476h1.1v1.063h-1.1v-1.063Z"/><rect class="a" x="96.83671" y="26.74867" width="0.963" height="9.127"/><path class="a" d="M31.51071,24.25968h0.584v-3.921h-0.584v3.921Zm-0.038-4.778h0.667v-0.644h-0.667v0.644Z"/><path class="b" d="M0.15411,31.62107a0.17021,0.17021,0,0,1-.039-0.002,0.142,0.142,0,0,1-.103-0.137c-0.211-5.469,2.341-10.87,7.185-15.207,5.191-4.649,12.376-7.561,20.775-8.419,10.268-1.049,21.944,1.126,33.766,6.29a0.14857,0.14857,0,0,1-.012.288l-0.005.001a0.12021,0.12021,0,0,1-.059-0.009c-7.82-3.321-18.799-4.758-28.652-3.751-9.232.943-25.763,4.908-32.75,20.865a0.136,0.136,0,0,1-.106.081"/><path class="c" d="M35.30131,0.00027l-0.015.003a54.44579,54.44579,0,0,0-16.994,7.74c-4.359,3.118-7.426,6.708-8.87,10.382a11.9653,11.9653,0,0,0,.886,11.031,0.078,0.078,0,0,0,.073.038l0.021-.005a0.078,0.078,0,0,0,.05-0.087c-1.346-7.639,3.335-14.118,7.499-18.208a48.77776,48.77776,0,0,1,17.382-10.741,0.07985,0.07985,0,0,0,.05-0.098,0.07884,0.07884,0,0,0-.082-0.055"/><path class="a" d="M22.09091,43.67717c1.312,0,2.25-.675,2.25-1.8v-0.025c0-1.075-.825-1.725-2.238-1.725h-2.7v3.55h2.688Zm-3.676-4.463h3.763a3.45107,3.45107,0,0,1,2.488.875,2.41478,2.41478,0,0,1,.676,1.726v0.025a2.56171,2.56171,0,0,1-2.376,2.55l2.688,3.576h-1.213l-2.538-3.401h-2.5v3.401h-0.988v-8.752Z"/><path class="a" d="M31.24241,45.59057v-0.6a6.6272,6.6272,0,0,0-1.888-.275c-1.2,0-1.888.525-1.888,1.3v0.025a1.43264,1.43264,0,0,0,1.626,1.288,1.93354,1.93354,0,0,0,2.15-1.738m-4.751.5v-0.025c0-1.388,1.125-2.113,2.763-2.113a6.78773,6.78773,0,0,1,1.975.275v-0.2a1.65521,1.65521,0,0,0-1.912-1.75,4.49591,4.49591,0,0,0-1.963.462l-0.288-.787a5.28956,5.28956,0,0,1,2.351-.55,2.873,2.873,0,0,1,2.088.712,2.557,2.557,0,0,1,.675,1.901v3.95h-0.951v-0.962a2.83267,2.83267,0,0,1-2.325,1.1,2.17025,2.17025,0,0,1-2.413-2.013"/><path class="a" d="M39.13121,44.74V44.715a2.40164,2.40164,0,0,0-2.338-2.488,2.28125,2.28125,0,0,0-2.275,2.488V44.74a2.32737,2.32737,0,0,0,2.275,2.501,2.41347,2.41347,0,0,0,2.338-2.501m-5.601.013V44.728a3.17176,3.17176,0,0,1,3.088-3.363,2.91722,2.91722,0,0,1,2.476,1.375V38.839h0.962v9.127h-0.962v-1.3a2.90814,2.90814,0,0,1-2.476,1.438,3.15346,3.15346,0,0,1-3.088-3.351"/><path class="a" d="M50.22011,44.76537v-0.025a2.44579,2.44579,0,0,0-2.4-2.526,2.38554,2.38554,0,0,0-2.363,2.501v0.025a2.4247,2.4247,0,0,0,2.388,2.513,2.38472,2.38472,0,0,0,2.375-2.488m-5.751,0v-0.025a3.36953,3.36953,0,0,1,6.739-.025v0.025a3.35685,3.35685,0,0,1-3.388,3.376,3.312,3.312,0,0,1-3.351-3.351"/><path class="a" d="M60.95971,44.76537v-0.025a2.44579,2.44579,0,0,0-2.4-2.526,2.38554,2.38554,0,0,0-2.363,2.501v0.025a2.4247,2.4247,0,0,0,2.388,2.513,2.38472,2.38472,0,0,0,2.375-2.488m-5.751,0v-0.025a3.36953,3.36953,0,0,1,6.739-.025v0.025a3.35685,3.35685,0,0,1-3.388,3.376,3.312,3.312,0,0,1-3.351-3.351"/><path class="a" d="M68.59831,44.42727v-0.024a2.264,2.264,0,0,0-2.375-2.188,2.13715,2.13715,0,0,0-2.238,2.175v0.025a2.18784,2.18784,0,0,0,2.238,2.2,2.28032,2.28032,0,0,0,2.375-2.188m-5.301,4.664,0.438-.75a4.13035,4.13035,0,0,0,2.488.825,2.12442,2.12442,0,0,0,2.35-2.3v-0.763a3.06366,3.06366,0,0,1-2.538,1.363,2.98909,2.98909,0,0,1-3.038-3.026v-0.025a3.06,3.06,0,0,1,5.564-1.75v-1.163h0.963v5.339a3.1122,3.1122,0,0,1-.826,2.287,3.39509,3.39509,0,0,1-2.463.863,5.06926,5.06926,0,0,1-2.938-.9"/><path class="a" d="M70.98631,49.67877l0.325-.763a2.0185,2.0185,0,0,0,1.013.238c0.575,0,.937-0.3,1.325-1.213l-2.938-6.438h1.063l2.35,5.388,2.076-5.388h1.025l-2.713,6.676c-0.551,1.338-1.176,1.825-2.151,1.825a2.93077,2.93077,0,0,1-1.375-.325"/><path class="a" d="M21.48641,29.41237h0.963v1.125a2.44787,2.44787,0,0,1,2.213-1.263,2.36135,2.36135,0,0,1,2.475,2.589v4.013h-0.962v-3.776a1.72259,1.72259,0,0,0-1.788-1.95,1.90128,1.90128,0,0,0-1.938,2.025v3.701h-0.963v-6.464Z"/><path class="a" d="M29.21281,34.16337v-3.901h-0.9v-0.85h0.9v-1.95h0.963v1.95h2.05v0.85h-2.05v3.776a0.9556,0.9556,0,0,0,1.087,1.075,2.01544,2.01544,0,0,0,.938-0.225v0.825a2.41869,2.41869,0,0,1-1.162.275,1.64543,1.64543,0,0,1-1.826-1.825"/><path class="a" d="M38.35231,32.26337a2.12334,2.12334,0,0,0-2.063-2.176,2.23214,2.23214,0,0,0-2.101,2.176h4.164Zm-1.888,2.925a2.67169,2.67169,0,0,0,2.038-.913l0.6,0.538a3.33715,3.33715,0,0,1-2.663,1.213,3.21692,3.21692,0,0,1-3.226-3.376,3.19272,3.19272,0,0,1,3.101-3.376c1.913,0,3.013,1.526,3.013,3.426,0,0.088,0,.188-0.012.338h-5.127a2.25959,2.25959,0,0,0,2.276,2.15"/><path class="a" d="M40.70211,29.41237h0.963v1.688a2.76893,2.76893,0,0,1,2.638-1.801v1.038h-0.075c-1.413,0-2.563,1.013-2.563,2.963v2.576h-0.963v-6.464Z"/><path class="a" d="M57.218,32.26337a2.12268,2.12268,0,0,0-2.063-2.176,2.23057,2.23057,0,0,0-2.1,2.176h4.163Zm-1.888,2.925a2.67169,2.67169,0,0,0,2.038-.913l0.6,0.538a3.33715,3.33715,0,0,1-2.663,1.213,3.21692,3.21692,0,0,1-3.226-3.376,3.19272,3.19272,0,0,1,3.101-3.376c1.913,0,3.013,1.526,3.013,3.426,0,0.088,0,.188-0.012.338H53.055a2.25808,2.25808,0,0,0,2.275,2.15"/><path class="a" d="M59.56831,29.41237h0.963v1.125a2.44739,2.44739,0,0,1,2.212-1.263,2.3621,2.3621,0,0,1,2.476,2.589v4.013h-0.963v-3.776a1.72237,1.72237,0,0,0-1.787-1.95,1.90128,1.90128,0,0,0-1.938,2.025v3.701h-0.963v-6.464Z"/><path class="a" d="M67.29461,34.16337v-3.901h-0.9v-0.85h0.9v-1.95h0.963v1.95h2.05v0.85h-2.05v3.776a0.9556,0.9556,0,0,0,1.087,1.075,2.01546,2.01546,0,0,0,.938-0.225v0.825a2.41872,2.41872,0,0,1-1.162.275,1.64542,1.64542,0,0,1-1.826-1.825"/><path class="a" d="M80.02151,32.67547v-0.025a2.44579,2.44579,0,0,0-2.4-2.526,2.38554,2.38554,0,0,0-2.363,2.501v0.025a2.4247,2.4247,0,0,0,2.388,2.513,2.38472,2.38472,0,0,0,2.375-2.488m-5.751,0v-0.025a3.36953,3.36953,0,0,1,6.739-.025v0.025a3.35686,3.35686,0,0,1-3.388,3.376,3.312,3.312,0,0,1-3.351-3.351"/><path class="a" d="M82.43431,29.41237h0.963v1.125a2.44786,2.44786,0,0,1,2.213-1.263,2.36135,2.36135,0,0,1,2.475,2.589v4.013h-0.962v-3.776a1.72259,1.72259,0,0,0-1.788-1.95,1.90128,1.90128,0,0,0-1.938,2.025v3.701h-0.963v-6.464Z"/><path class="a" d="M94.08681,33.50067v-0.6a6.62726,6.62726,0,0,0-1.888-.275c-1.2,0-1.888.525-1.888,1.3v0.025a1.43264,1.43264,0,0,0,1.626,1.288,1.93355,1.93355,0,0,0,2.15-1.738m-4.751.5v-0.025c0-1.388,1.125-2.113,2.763-2.113a6.78775,6.78775,0,0,1,1.975.275v-0.2a1.65521,1.65521,0,0,0-1.912-1.75,4.49589,4.49589,0,0,0-1.963.462l-0.288-.787a5.28955,5.28955,0,0,1,2.351-.55,2.873,2.873,0,0,1,2.088.712,2.557,2.557,0,0,1,.675,1.901v3.95h-0.951v-0.962a2.83269,2.83269,0,0,1-2.325,1.1,2.17025,2.17025,0,0,1-2.413-2.013"/><path class="a" d="M17.579,23.48567l0.372-.44a2.52438,2.52438,0,0,0,1.82.751,1.01927,1.01927,0,0,0,1.183-.902v-0.016c0-.493-0.266-0.773-1.38-1.008-1.221-.266-1.782-0.66-1.782-1.532v-0.016a1.56681,1.56681,0,0,1,1.744-1.448,2.774,2.774,0,0,1,1.866.652l-0.349.463a2.3325,2.3325,0,0,0-1.532-.577,0.97948,0.97948,0,0,0-1.13.857v0.016c0,0.5.273,0.781,1.441,1.031,1.183,0.258,1.729.69,1.729,1.502v0.015a1.59806,1.59806,0,0,1-1.813,1.502,3.10551,3.10551,0,0,1-2.169-.85"/><path class="a" d="M25.77781,22.31787v-0.015a1.48416,1.48416,0,0,0-1.457-1.532,1.44706,1.44706,0,0,0-1.433,1.517v0.015a1.47051,1.47051,0,0,0,1.448,1.524,1.44687,1.44687,0,0,0,1.442-1.509m-3.489,0v-0.015a2.044,2.044,0,0,1,4.088-.015v0.015a2.0364,2.0364,0,0,1-2.056,2.048,2.0091,2.0091,0,0,1-2.032-2.033"/><path class="a" d="M27.036,22.31787v-0.015a2.0423,2.0423,0,0,1,3.58-1.35l-0.387.409a1.58311,1.58311,0,0,0-1.19-.591,1.44732,1.44732,0,0,0-1.404,1.517v0.015a1.465,1.465,0,0,0,1.441,1.524,1.61391,1.61391,0,0,0,1.198-.584l0.372,0.349a2.028,2.028,0,0,1-3.61-1.274"/><path class="a" d="M36.17531,22.06728a1.28779,1.28779,0,0,0-1.252-1.319,1.35293,1.35293,0,0,0-1.274,1.319h2.526Zm-1.146,1.775a1.61977,1.61977,0,0,0,1.236-.554l0.364,0.326a2.02274,2.02274,0,0,1-1.615.736,2.05218,2.05218,0,0,1-.076-4.095,1.86875,1.86875,0,0,1,1.828,2.078c0,0.053,0,.114-0.008.205h-3.109a1.36983,1.36983,0,0,0,1.38,1.304"/><path class="a" d="M37.84291,23.22037v-2.366h-0.546v-0.516h0.546v-1.183h0.584v1.183h1.244v0.516h-1.244v2.29a0.57976,0.57976,0,0,0,.66.652,1.22407,1.22407,0,0,0,.569-0.136v0.501a1.473,1.473,0,0,1-.706.166,0.9981,0.9981,0,0,1-1.107-1.107"/><path class="a" d="M40.32241,25.29847l0.197-.463a1.22281,1.22281,0,0,0,.614.144,0.87916,0.87916,0,0,0,.804-0.735l-1.782-3.906h0.645l1.426,3.269,1.259-3.269h0.622l-1.646,4.05a1.36988,1.36988,0,0,1-1.304,1.107,1.7859,1.7859,0,0,1-.835-0.197"/><path class="a" d="M50.25011,22.31787v-0.015a1.48417,1.48417,0,0,0-1.457-1.532,1.44706,1.44706,0,0,0-1.433,1.517v0.015a1.47069,1.47069,0,0,0,1.449,1.524,1.44667,1.44667,0,0,0,1.441-1.509m-3.489,0v-0.015a2.044,2.044,0,0,1,4.088-.015v0.015a2.0364,2.0364,0,0,1-2.056,2.048,2.0091,2.0091,0,0,1-2.032-2.033"/><path class="a" d="M51.971,20.85407H51.433v-0.508h0.538v-0.342a1.3824,1.3824,0,0,1,.341-1.008,1.15627,1.15627,0,0,1,.842-0.304,1.78177,1.78177,0,0,1,.645.099v0.508a1.98079,1.98079,0,0,0-.569-0.099,0.677,0.677,0,0,0-.682.835v0.318h1.243v0.501H52.555v3.405H51.971v-3.405Z"/></svg>